<?xml version="1.0" encoding="UTF-8"?>
<svg width="189px" height="130px" viewBox="0 0 189 130" version="1.1" xmlns="http://www.w3.org/2000/svg" xmlns:xlink="http://www.w3.org/1999/xlink">
    <!-- Generator: Sketch 3.8.3 (29802) - http://www.bohemiancoding.com/sketch -->
    <title>Group</title>
    <desc>Created with Sketch.</desc>
    <defs></defs>
    <g id="Page-1" stroke="none" stroke-width="1" fill="none" fill-rule="evenodd">
        <g id="Group" transform="translate(0.000000, -2.000000)">
            <g id="g20" transform="translate(41.519625, 123.497375) scale(1, -1) translate(-41.519625, -123.497375) translate(34.019625, 114.747375)" fill="#356632">
                <path d="M2.5,2.5 L5.515,2.5 C6.54875,2.5 7.5175,2.63 8.41875,2.88875 C9.32,3.14625 10.10375,3.54125 10.76875,4.07375 C11.43375,4.60625 11.9575,5.2825 12.3425,6.1025 C12.7275,6.9225 12.91875,7.89375 12.91875,9.0175 C12.91875,10.14125 12.7275,11.1125 12.3425,11.9325 C11.9575,12.75375 11.43375,13.43 10.76875,13.96125 C10.10375,14.49375 9.32,14.88875 8.41875,15.1475 C7.5175,15.40625 6.54875,15.535 5.515,15.535 L2.5,15.535 L2.5,2.5 L2.5,2.5 Z M1.03625,16.86625 L5.89125,16.86625 C7.25125,16.86625 8.40375,16.69875 9.35,16.36625 C10.295,16.035 11.0825,15.60875 11.71125,15.0925 C12.33875,14.575 12.83375,14.0025 13.19625,13.37375 C13.55875,12.745 13.825,12.14375 13.99375,11.5675 C14.16375,10.99 14.27125,10.47 14.31625,10.00375 C14.36,9.53875 14.3825,9.21 14.3825,9.0175 C14.3825,8.82625 14.36,8.49625 14.31625,8.03125 C14.27125,7.56625 14.16375,7.045 13.99375,6.46875 C13.825,5.89125 13.55875,5.29 13.19625,4.66125 C12.83375,4.03375 12.33875,3.46125 11.71125,2.94375 C11.0825,2.42625 10.295,2.00125 9.35,1.66875 C8.40375,1.33625 7.25125,1.17 5.89125,1.17 L1.03625,1.17 L1.03625,16.86625 L1.03625,16.86625 Z" id="path22"></path>
            </g>
            <g id="g24" transform="translate(56.682625, 123.506625) scale(1, -1) translate(-56.682625, -123.506625) translate(51.682625, 115.381625)" fill="#356632">
                <polygon id="path26" points="0 16.25 9.59875 16.25 9.59875 14.92 1.4625 14.92 1.4625 9.3325 9.08875 9.3325 9.08875 8.0025 1.4625 8.0025 1.4625 1.88375 9.95375 1.88375 9.95375 0.55375 0 0.55375"></polygon>
            </g>
            <g id="g28" transform="translate(74.698375, 122.962125) scale(1, -1) translate(-74.698375, -122.962125) translate(67.823375, 114.212125)" fill="#356632">
                <polygon id="path30" points="6.25 15 0.885 15 0.885 16.33 13.0775 16.33 13.0775 15 7.7125 15 7.7125 0.635 6.25 0.635"></polygon>
            </g>
            <g id="g32" transform="translate(88.530125, 123.548750) scale(1, -1) translate(-88.530125, -123.548750) translate(82.280125, 114.798750)" fill="#356632">
                <path d="M2.5,10 L5.60375,10 C6.3725,10 6.99625,10.09625 7.4775,10.2875 C7.9575,10.48 8.33125,10.7175 8.59625,10.9975 C8.8625,11.2775 9.04375,11.58125 9.14,11.90625 C9.23625,12.23125 9.28375,12.5275 9.28375,12.79375 C9.28375,13.06 9.23625,13.355 9.14,13.68 C9.04375,14.005 8.8625,14.30875 8.59625,14.58875 C8.33125,14.87 7.9575,15.10625 7.4775,15.29875 C6.99625,15.49125 6.3725,15.58625 5.60375,15.58625 L2.5,15.58625 L2.5,10 L2.5,10 Z M1.0375,16.9175 L5.16,16.9175 C5.3675,16.9175 5.64875,16.90875 6.0025,16.895 C6.3575,16.88 6.7425,16.835 7.15625,16.76125 C7.57,16.6875 7.99125,16.56875 8.41875,16.40625 C8.8475,16.24375 9.2325,16.0075 9.5725,15.6975 C9.9125,15.3875 10.1925,14.99625 10.415,14.5225 C10.63625,14.05 10.7475,13.4725 10.7475,12.79375 C10.7475,12.04 10.6175,11.41875 10.35875,10.93125 C10.1,10.44375 9.775,10.04875 9.38375,9.745 C8.99125,9.4425 8.56,9.2175 8.08625,9.06875 C7.61375,8.92125 7.1625,8.8175 6.735,8.75875 L11.30125,1.22125 L9.63875,1.22125 L5.2275,8.67 L2.5,8.67 L2.5,1.22125 L1.0375,1.22125 L1.0375,16.9175 L1.0375,16.9175 Z" id="path34"></path>
            </g>
            <g id="g36" transform="translate(103.156625, 123.229500) scale(1, -1) translate(-103.156625, -123.229500) translate(94.406625, 114.479500)" fill="#356632">
                <path d="M2.5,8.75 C2.5,7.775 2.655,6.865 2.965,6.0225 C3.27625,5.18125 3.71875,4.44875 4.29625,3.8275 C4.87125,3.2075 5.57,2.72 6.39,2.365 C7.21125,2.01 8.13,1.83375 9.15125,1.83375 C10.17,1.83375 11.09,2.01 11.91,2.365 C12.73,2.72 13.42875,3.2075 14.005,3.8275 C14.5825,4.44875 15.025,5.18125 15.335,6.0225 C15.645,6.865 15.80125,7.775 15.80125,8.75 C15.80125,9.725 15.645,10.63375 15.335,11.47625 C15.025,12.31875 14.5825,13.05 14.005,13.67125 C13.42875,14.2925 12.73,14.78 11.91,15.13375 C11.09,15.49 10.17,15.66625 9.15125,15.66625 C8.13,15.66625 7.21125,15.49 6.39,15.13375 C5.57,14.78 4.87125,14.2925 4.29625,13.67125 C3.71875,13.05 3.27625,12.31875 2.965,11.47625 C2.655,10.63375 2.5,9.725 2.5,8.75 M1.03625,8.75 C1.03625,9.9475 1.23625,11.0475 1.635,12.05375 C2.03375,13.0575 2.58875,13.92625 3.2975,14.6575 C4.0075,15.39 4.86125,15.9625 5.85875,16.37625 C6.85625,16.79 7.95375,16.99625 9.15125,16.99625 C10.3475,16.99625 11.445,16.79 12.4425,16.37625 C13.44,15.9625 14.29375,15.39 15.0025,14.6575 C15.7125,13.92625 16.26625,13.0575 16.66625,12.05375 C17.065,11.0475 17.26375,9.9475 17.26375,8.75 C17.26375,7.5525 17.065,6.4475 16.66625,5.43625 C16.26625,4.42375 15.7125,3.55125 15.0025,2.82 C14.29375,2.0875 13.44,1.51875 12.4425,1.1125 C11.445,0.70625 10.3475,0.5025 9.15125,0.5025 C7.95375,0.5025 6.85625,0.70625 5.85875,1.1125 C4.86125,1.51875 4.0075,2.0875 3.2975,2.82 C2.58875,3.55125 2.03375,4.42375 1.635,5.43625 C1.23625,6.4475 1.03625,7.5525 1.03625,8.75" id="path38"></path>
            </g>
            <g id="g40" transform="translate(120.376500, 123.616500) scale(1, -1) translate(-120.376500, -123.616500) translate(112.876500, 114.866500)" fill="#356632">
                <path d="M15,3.75 C14.245,2.73 13.37375,1.99875 12.38375,1.555 C11.39375,1.11125 10.3225,0.89 9.17,0.89 C7.9725,0.89 6.875,1.09375 5.87625,1.5 C4.88,1.90625 4.02625,2.475 3.31625,3.20625 C2.6075,3.9375 2.05375,4.81 1.65375,5.8225 C1.255,6.835 1.055,7.94 1.055,9.1375 C1.055,10.33375 1.255,11.435 1.65375,12.44 C2.05375,13.445 2.6075,14.31375 3.31625,15.045 C4.02625,15.77625 4.88,16.34875 5.87625,16.7625 C6.875,17.17625 7.9725,17.38375 9.17,17.38375 C10.23375,17.38375 11.2275,17.195 12.15125,16.81875 C13.07375,16.44125 13.88375,15.81 14.5775,14.9225 L13.38125,13.925 C12.8925,14.66375 12.26875,15.20375 11.50875,15.54375 C10.7475,15.88375 9.96875,16.05375 9.17,16.05375 C8.15,16.05375 7.22875,15.87625 6.40875,15.52125 C5.58875,15.16625 4.89,14.67875 4.31375,14.05875 C3.7375,13.4375 3.295,12.70625 2.98375,11.86375 C2.67375,11.02125 2.52,10.1125 2.52,9.1375 C2.52,8.16125 2.67375,7.2525 2.98375,6.41 C3.295,5.5675 3.7375,4.83625 4.31375,4.215 C4.89,3.59375 5.58875,3.10625 6.40875,2.7525 C7.22875,2.3975 8.15,2.22 9.17,2.22 C9.5675,2.22 9.98125,2.2675 10.41,2.365 C10.84,2.46 11.2575,2.6075 11.6625,2.8075 C12.07,3.0075 12.45875,3.2575 12.8275,3.56125 C13.19625,3.86375 13.52125,4.23 13.8025,4.65875 L15,3.75 L15,3.75 Z" id="path42"></path>
            </g>
            <g id="g44" transform="translate(135.431375, 123.228250) scale(1, -1) translate(-135.431375, -123.228250) translate(127.306375, 114.478250)" fill="#356632">
                <path d="M8.75,15 L5.09125,6.39875 L12.29625,6.39875 L8.75,15 L8.75,15 Z M8.0625,16.59625 L9.57,16.59625 L16.17625,0.90125 L14.53625,0.90125 L12.82875,5.06875 L4.515,5.06875 L2.7425,0.90125 L1.2125,0.90125 L8.0625,16.59625 L8.0625,16.59625 Z" id="path46"></path>
            </g>
            <g id="g48" transform="translate(149.290000, 123.173375) scale(1, -1) translate(-149.290000, -123.173375) translate(143.665000, 114.423375)" fill="#356632">
                <path d="M2.5,3.75 C2.885,3.085 3.38375,2.59 3.99625,2.265 C4.61,1.94 5.3075,1.7775 6.09125,1.7775 C6.58,1.7775 7.0375,1.85 7.46625,1.99875 C7.89375,2.14625 8.2675,2.35375 8.58625,2.62 C8.90375,2.88625 9.15375,3.20625 9.33875,3.58375 C9.52375,3.96 9.61625,4.385 9.61625,4.85875 C9.61625,5.405 9.5025,5.85625 9.2725,6.21125 C9.0425,6.565 8.7375,6.8575 8.3525,7.08625 C7.96875,7.31625 7.53625,7.51125 7.05625,7.67375 C6.575,7.83625 6.08,7.99875 5.57125,8.16125 C5.06125,8.32375 4.565,8.50875 4.085,8.71625 C3.605,8.9225 3.1725,9.1925 2.7875,9.525 C2.405,9.8575 2.0975,10.275 1.8675,10.7775 C1.63875,11.28 1.525,11.90125 1.525,12.64 C1.525,13.33375 1.66125,13.95125 1.935,14.49125 C2.20875,15.03 2.57875,15.48125 3.04375,15.8425 C3.50875,16.205 4.04375,16.47875 4.65125,16.66375 C5.25625,16.84875 5.89125,16.94 6.5575,16.94 C7.415,16.94 8.2075,16.78875 8.94,16.48625 C9.67125,16.1825 10.3025,15.6775 10.835,14.9675 L9.5725,14.05875 C9.20125,14.57625 8.77,14.96375 8.275,15.2225 C7.78,15.48125 7.1925,15.61 6.5125,15.61 C6.04,15.61 5.58875,15.5475 5.16125,15.42125 C4.73125,15.29625 4.3575,15.11125 4.04,14.8675 C3.72375,14.62375 3.4675,14.3175 3.27625,13.9475 C3.08375,13.5775 2.98875,13.1425 2.98875,12.64 C2.98875,11.85625 3.1875,11.25375 3.58625,10.83375 C3.985,10.4125 4.485,10.07875 5.0825,9.835 C5.68125,9.59125 6.33125,9.3775 7.03375,9.1925 C7.735,9.0075 8.38625,8.76 8.985,8.45 C9.5825,8.14 10.08125,7.7075 10.48125,7.1525 C10.88,6.59875 11.07875,5.83375 11.07875,4.85875 C11.07875,4.14875 10.9475,3.52 10.68125,2.97375 C10.415,2.4275 10.05625,1.965 9.605,1.58875 C9.15375,1.21125 8.6325,0.9275 8.0425,0.735 C7.45125,0.54375 6.83875,0.44625 6.2025,0.44625 C5.16875,0.44625 4.21375,0.6275 3.3425,0.99 C2.47125,1.3525 1.72375,1.96125 1.10375,2.81875 L2.5,3.75 L2.5,3.75 Z" id="path50"></path>
            </g>
            <g id="g52" transform="translate(17.632375, 96.558375) scale(1, -1) translate(-17.632375, -96.558375) translate(0.757375, 79.058375)" fill="#356632">
                <path d="M15,12.5 C15,12.55 14.94875,12.55 14.94875,12.65 C13.95,14.1 12.94875,15.59875 12,17.09875 C11.39875,17.94875 11.1,18.94875 11.25,19.99875 C11.3,20.74875 11.59875,21.54875 11.9,22.29875 C12.05,22.5475 12.15,22.8475 12.35,23.0475 C13.35,23.84875 14.4,24.2475 15.65,23.8975 C17.04875,23.5975 18.15,22.79875 18.9475,21.6975 C19.59875,20.84875 20.0975,19.99875 20.69875,19.14875 C21.1475,18.4 21.6975,17.69875 22.1975,17.05 L22.2975,17.05 L22.34875,17.09875 C22.8475,17.54875 22.9975,18.14875 22.7975,18.79875 C22.34875,20.4475 21.7475,22.09875 21.0475,23.64875 C20.24875,25.3475 18.99875,26.64625 17.29875,27.5475 C16.44875,27.99625 15.49875,28.0975 14.6,27.99625 C13.69875,27.89625 12.9,27.5975 12.1,27.2475 C10.6,26.5975 9.35,25.5475 8.15125,24.39875 C7.65,23.7975 7.3,23.14875 7.25125,22.3475 C7.2,21.54875 7.2,20.84875 7.10125,20.04875 C7.10125,18.84875 7.2,17.69875 7.45125,16.49875 C8.05,13.8 10.4,12.05 12.84875,12.05 C13.59875,12.05 14.34875,12.15 15,12.5 M15.24875,34.195 C16.54875,34.195 17.7975,34.095 19.0475,33.69625 C20.4975,33.24625 21.4975,32.29625 22.0975,30.84625 C22.2975,30.39625 22.54875,29.99625 22.9475,29.6475 C24.44875,28.1975 25.69875,26.5475 26.59625,24.69875 C27.64625,22.7475 28.2475,20.64875 28.59625,18.44875 C28.7475,17.29875 28.7475,16.14875 28.4475,15.15 C28.2475,14.55 27.99625,14 27.7975,13.5 C27.54625,12.95 27.3475,12.45 27.1475,11.90125 C26.9975,11.6 27.0475,11.3 27.3475,11.05125 C27.6975,10.65125 28.0975,10.35 28.49625,10.00125 C29.7975,8.85125 30.99625,7.50125 32.04625,6.05125 C32.69625,5.15125 32.895,4.25125 32.59625,3.10125 C32.49625,2.65125 32.29625,2.20125 32.19625,1.75125 C32.0975,1.55125 31.9975,1.4025 31.7975,1.35125 C31.39625,1.2025 30.99625,1.0025 30.5475,0.9025 C29.54625,0.50125 28.59625,0.55125 27.5975,1.0025 C26.7475,1.35125 25.9475,1.9525 25.1475,2.5525 L21.0475,5.85125 C20.4475,6.35125 19.84875,6.35125 19.1475,6.15125 C18.19875,5.80125 17.2,5.50125 16.24875,5.20125 C12.84875,4.35125 9.55125,4.90125 6.45,6.6 C5.6,7.10125 4.75125,7.65 4.05,8.30125 C3.60125,8.75125 3.2525,9.2 2.85125,9.75 C2.25125,10.4 1.80125,11.1 1.35125,11.84875 C0.7525,12.89875 0.45125,14 0.25125,15.19875 C0.05125,16.84875 -0.04875,18.4 0.05125,20.04875 C0.1025,21.6975 0.35125,23.24875 0.80125,24.8475 C1.1525,25.94875 1.75125,26.8475 2.55125,27.69625 C2.9,28.1975 3.40125,28.5975 3.75125,29.04625 C4.45125,29.6975 5,30.29625 5.70125,30.94625 C6.35,31.54625 7.05125,32.0475 7.9,32.39625 C9.2,32.89625 10.54875,33.4975 12,33.79625 C12.99875,34.095 14.14875,34.29625 15.24875,34.195" id="path54"></path>
            </g>
            <g id="g56" transform="translate(45.004125, 93.734875) scale(1, -1) translate(-45.004125, -93.734875) translate(31.254125, 76.859875)" fill="#356632">
                <path d="M26.25,17.5 C26.4,16.05 25.85,14.55125 25.25,13.15125 C24.45,11.00125 23.25125,9.05125 21.85,7.2025 C21.25125,6.40125 20.6,5.55125 19.90125,4.8025 C18.25125,3.05125 16.25125,1.9525 13.95125,1.4525 C10.40125,0.6025 6.55375,1.9525 4.35375,4.1525 C3.10375,5.4025 2.40375,6.85125 1.9025,8.4525 C1.55375,9.55125 1.35375,10.7525 1.15375,11.90125 C1.05375,13.20125 0.85375,14.55125 0.70375,15.95 C0.60375,16.95125 0.45375,17.94875 0.40375,18.99875 C0.30375,19.35 0.40375,19.85 0.45375,20.3 C0.50375,21.19875 0.50375,22.1 0.65375,22.99875 C0.70375,23.74875 0.70375,24.44875 0.905,25.09875 C1.105,26.04875 1.70375,26.84875 2.35375,27.54875 C2.35375,27.64875 2.45375,27.6975 2.45375,27.74875 C2.90375,28.34875 3.55375,28.6475 4.3025,28.59875 C6.05375,28.4475 7.4525,27.7975 8.4025,26.19875 C8.7025,25.54875 8.9025,24.84875 8.9025,24.04875 C9.0525,22.04875 9.1525,19.94875 9.3025,17.94875 C9.35125,16.5 9.50375,15.1 9.60375,13.60125 C9.70375,12.5 9.9525,11.45 10.2525,10.35125 C10.3525,10.15125 10.40125,9.90125 10.4525,9.65125 C10.6525,9.10125 11.0025,9.00125 11.45125,9.25 C12.6525,9.90125 13.85125,10.65125 14.6025,11.85 C15.60125,13.15125 16.50125,14.50125 17.20125,15.95 C17.55125,16.5 17.65125,17.1 17.75125,17.8 C18.00125,20.2 17.50125,22.5 16.45125,24.64875 C15.85125,25.84875 15.40125,27.09875 14.9525,28.34875 C14.7525,28.79875 14.80125,29.2475 14.90125,29.74875 C15.00125,30.59875 15.25125,31.3975 15.7025,32.0975 C16.0025,32.4475 16.25125,32.6975 16.65125,32.8975 C16.75125,32.94625 16.9525,32.94625 17.10125,32.94625 C17.55125,32.84625 18.00125,32.6975 18.45125,32.6475 C19.3,32.4975 20.00125,32.0975 20.6,31.5475 C22.10125,30.04875 23.4,28.39875 24.3,26.4475 C25.15,24.84875 25.65125,23.09875 26,21.19875 C26.2,20 26.25,18.85 26.25,17.5" id="path58"></path>
            </g>
            <g id="g60" transform="translate(66.057625, 95.583000) scale(1, -1) translate(-66.057625, -95.583000) translate(61.057625, 77.458000)" fill="#356632">
                <path d="M0,12.5 C0,13.99875 0.05,15.44875 0.2,17 C0.3,18.15 0.35,19.34875 0.4,20.4975 C0.54875,21.6475 0.54875,22.7975 0.65,23.8475 C0.75,25.0975 0.95,26.2475 1.15,27.44625 C1.35,28.8475 1.65,30.29625 2,31.69625 C2.3,32.995 3.04875,33.99625 4.24875,34.59625 C4.7,34.84625 5.14875,34.995 5.7,35.195 C6.05,35.295 6.44875,35.24625 6.79875,34.995 C7.84875,34.29625 8.64875,33.34625 9.0475,32.04625 C9.29875,31.24625 9.29875,30.44625 9.1475,29.54625 C9.0475,28.2975 8.84875,27.0975 8.69875,25.8475 C8.49875,24.5975 8.39875,23.4475 8.19875,22.1975 C8.09875,21.19875 7.9975,20.1975 7.84875,19.19875 C7.74875,18.09875 7.64875,17 7.49875,15.95 C7.39875,15 7.34875,14.04875 7.3,13.09875 C7.14875,12 7.04875,10.9 7,9.8 C6.84875,8.8 6.79875,7.8 6.74875,6.8 C6.69875,6.10125 6.64875,5.45 6.49875,4.80125 C6.44875,4.30125 6.25,3.85 6.15,3.40125 C5.95,2.55125 5.54875,1.80125 5.04875,1.10125 C4.94875,1.00125 4.8,0.7525 4.7,0.55125 C4.7,0.55125 4.65,0.50125 4.6,0.50125 L3.3,0.35125 C2.1,0.30125 1.3,0.80125 1.05,2.0025 C0.90125,2.75125 0.75,3.45125 0.65,4.20125 C0.5,5.1 0.4,5.95 0.3,6.90125 C0.25,7.6 0.15,8.35 0.15,9.15 C0.05,10.24875 0,11.35 0,12.5" id="path62"></path>
            </g>
            <g id="g64" transform="translate(86.836375, 92.958500) scale(1, -1) translate(-86.836375, -92.958500) translate(71.836375, 75.458500)" fill="#356632">
                <path d="M10,11.25 C11.1,12.44875 12.05,13.75 13.04875,15.04875 C14.4,16.69875 15.65,18.34875 17,19.9975 C17.9975,21.29875 19.1475,22.4975 20.2475,23.6475 C20.8475,24.34875 21.5975,24.9475 22.3475,25.44625 C22.9975,25.7975 23.7475,26.19625 24.5475,26.19625 C25.1975,26.2475 25.7975,26.0975 26.29625,25.7475 C27.2975,25.14625 27.5975,23.8475 27.0975,22.6975 C26.8475,21.9975 26.59625,21.29875 26.29625,20.5475 C26.29625,20.4975 26.3475,20.4475 26.3475,20.4475 C26.5475,20.2975 26.7975,20.1975 26.9475,19.94875 C27.3975,19.69875 27.74625,19.2975 27.84625,18.79875 L27.84625,18.64875 C28.0975,17.8975 28.39625,17.19875 28.49625,16.44875 L28.6475,14.8 C28.74625,13.55 28.84625,12.2 28.84625,10.9 C28.89625,10.2 28.84625,9.65 28.84625,9.05 C28.84625,8.45 28.84625,7.9 28.6475,7.4 C28.4475,6.6 28.1975,5.85125 27.99625,5 C27.89625,4.75125 27.79625,4.50125 27.64625,4.25 C27.64625,4.15 27.54625,4.05 27.44625,4.00125 C27.0975,3.90125 26.8475,3.80125 26.5475,3.70125 C25.9975,3.40125 25.44625,3.20125 24.7975,3.25125 C24.34875,3.35125 23.7975,3.45125 23.29875,3.65125 C22.9975,3.75125 22.7975,3.95 22.6975,4.25 C22.3975,4.75125 22.24875,5.3 22.24875,5.90125 C22.1975,6.6 22.14875,7.35125 22.14875,8 C22.14875,9.35 22.0975,10.70125 22.0975,12.05 C22.0975,12.7 21.9975,13.25 21.84875,13.94875 C21.7975,14.24875 21.6975,14.54875 21.5475,14.8 C21.2475,14.5 20.89875,14.19875 20.64875,13.79875 C19.39875,12.3 18.29875,10.75 17.04875,9.35 C15.14875,7 12.99875,4.9 10.54875,3.15125 C9.45125,2.30125 8.25,1.55125 6.9,1.10125 C6.4,0.90125 5.90125,0.7525 5.45,0.7525 C4.65125,0.70125 4.00125,0.9525 3.50125,1.65 C3.15125,1.95125 2.95125,2.45125 2.9,2.95125 C2.75125,3.75125 2.65125,4.55125 2.55125,5.35125 C2.25125,6.90125 2.0025,8.40125 1.80125,9.95 L1.50125,12.5 C1.45125,13.39875 1.45125,14.34875 1.45125,15.24875 C1.40125,16.19875 1.35125,17.24875 1.35125,18.19875 C1.25125,19.2475 1.25125,20.3975 1.20125,21.4475 C1.20125,22.0975 1.15125,22.7975 1.15125,23.4475 C1.10125,24.3975 1.00125,25.44625 1.00125,26.39625 C1.05125,27.1975 1.10125,27.99625 1.40125,28.7475 L1.45125,29.09625 C1.45125,29.3975 1.40125,29.64625 1.40125,29.84625 C1.40125,30.39625 1.60125,30.89625 1.95125,31.24625 C2.0025,31.29625 2.05125,31.39625 2.05125,31.49625 L2.05125,32.34625 C2.05125,32.74625 2.10125,33.19625 2.25125,33.49625 C2.50125,33.945 2.65125,34.29625 2.8,34.74625 C2.9,34.84625 3,34.84625 3.15125,34.84625 C3.50125,34.795 3.70125,34.54625 3.85,34.195 C4.50125,32.84625 5,31.49625 5.25125,30.09625 C5.6,28.5475 5.85,26.9975 6.20125,25.4975 L6.95125,21.4975 C7.25125,20.1975 7.4,18.79875 7.7,17.39875 L8.45,12.44875 C8.55,11.75 8.75,11.15 8.95,10.44875 C9.35,10.70125 9.7,10.95 10,11.25" id="path66"></path>
            </g>
            <g id="g68" transform="translate(116.006375, 94.611375) scale(1, -1) translate(-116.006375, -94.611375) translate(99.756375, 78.361375)" fill="#356632">
                <path d="M11.25,22.5 C10.9,22.45125 10.59875,22.45125 10.3,22.45125 C9.55,22.3 8.75,22.25125 8,22.20125 C7.4,22.10125 6.79875,22.00125 6.25,22.10125 C5.1,22.10125 4.05,22.4 3,22.8 C2.55125,22.95 2.05125,23.20125 1.60125,23.45 C0.5,23.95 0.05125,25.2 0.45125,26.3 C0.85125,27.55 1.70125,28.25 2.95,28.65 C3.35125,28.85 3.85,28.89875 4.3,28.85 C5.85,28.85 7.35,29.15 8.79875,29.5 L11.79875,30.24875 C12.44875,30.34875 13.09875,30.39875 13.74875,30.54875 C14.74875,30.7 15.69875,30.95 16.6475,31.09875 C17.74875,31.39875 18.79875,31.64875 19.8975,31.84875 C21.0475,31.94875 22.1475,32.1 23.2475,32.24875 C24.2975,32.34875 25.44625,32.4 26.54625,32.44875 C27.44625,32.54875 28.29625,32.44875 29.19625,32.4 C29.59625,32.34875 29.94625,32.3 30.34625,32.2 C31.545,31.69875 31.99625,30.59875 31.59625,29.4 C31.245,28.4 30.5475,27.7 29.54625,27.35 C27.995,26.69875 26.49625,26.3 24.8975,25.90125 L20.59875,24.85125 C20.0975,24.75125 19.6975,24.55125 19.1975,24.45125 C18.7475,24.25 18.5475,23.95 18.69875,23.55 C18.89875,22.4 19.0975,21.20125 19.1475,20.05125 C19.1975,18.90125 20.0975,9.5025 20.1975,8.40375 C20.1975,7.65375 20.4475,6.9525 20.59875,6.25375 C20.7475,5.6025 20.89875,4.90375 20.9475,4.20375 C21.0975,3.555 20.9475,2.90375 20.69875,2.25375 C20.2475,1.40375 19.54875,1.00375 18.59875,1.00375 C17.3975,1.00375 16.3475,1.50375 15.4975,2.305 C14.34875,3.40375 13.64875,4.705 13.35,6.25375 C13.09875,7.30375 12.1,16.70125 11.95,17.75125 C11.69875,19.30125 11.44875,20.90125 11.25,22.5" id="path70"></path>
            </g>
            <g id="g72" transform="translate(144.929750, 93.510250) scale(1, -1) translate(-144.929750, -93.510250) translate(130.554750, 76.010250)" fill="#356632">
                <path d="M11.25,25 C11.10125,24.74875 10.95,24.6 10.90125,24.34875 C10.45,22.54875 10,20.70125 9.60125,18.8 C9.55125,18.55 9.50125,18.25 9.50125,17.95 C9.50125,17.7 9.60125,17.6 9.95125,17.5 L10.25,17.5 C10.90125,17.65125 11.45,17.7 12.05125,17.85 C12.5,17.9 13,17.95 13.35,18.30125 C13.45,18.35 13.45,18.35 13.45,18.50125 C13.35,18.65 13.25,18.8 13.20125,19.1 C12.85,20.2 12.55,21.45 12.25125,22.6 C12,23.45 11.7,24.19875 11.3,25 L11.25,25 L11.25,25 Z M10.45,32.2975 C10.45,32.3975 10.55,32.44875 10.55,32.54875 C10.65125,32.9475 10.95,33.3475 11.35,33.49875 C12.05125,33.7975 12.75,33.9475 13.5,33.8475 C14.25,33.8475 14.9,33.59875 15.5,33.1475 C16.55,32.2975 17.45,31.19875 18.05,29.89875 C18.55125,28.8475 18.84875,27.74875 19.2,26.69875 C19.85,24.74875 20.45,22.7 21.1,20.70125 C21.1,20.5 21.14875,20.3 21.2,20.2 C21.4,19.8 21.64875,19.6 22.05,19.6 C22.65,19.55125 23.24875,19.55125 23.9,19.55125 L25.49875,19.55125 C26.4975,19.55125 27.05,19.15 27.3475,18.20125 C27.7475,17.10125 27.4475,16.10125 26.5975,15.25125 C26.14875,14.85125 25.5475,14.60125 25.05,14.35 L23.7,13.75125 C23.64875,13.70125 23.6,13.70125 23.6,13.60125 C23.09875,13.40125 22.95,13.1 23.0475,12.60125 C23.09875,12.2025 23.09875,11.75125 23.14875,11.35125 C23.3,10.40125 23.5,9.5025 23.6,8.60125 C23.64875,8.2025 23.74875,7.8025 23.8,7.4025 C23.94875,6.70125 23.9,6.0025 23.7,5.2525 C23.54875,4.55375 23.34875,3.8525 23.14875,3.1525 C23.09875,3.0525 23.09875,3.0025 23.09875,3.0025 C22.45,2.55375 21.84875,2.15375 21.2,1.7525 C20.94875,1.5525 20.55,1.4525 20.19875,1.3525 C19.60125,1.2525 19.04875,1.4525 18.55125,1.50375 C17.89875,1.7025 17.55,2.10375 17.3,2.65375 C17.2,3.0025 17.1,3.2525 17.05,3.50375 C16.55,5.80375 16,8.05125 15.5,10.30125 C15.5,10.50125 15.4,10.60125 15.34875,10.80125 C15.2,11.0525 15.04875,11.1525 14.75,11.1525 C14.35,11.10125 13.9,11.0525 13.5,10.9525 C12.4,10.60125 11.25,10.35125 10.15125,10.0025 C9.7,9.9025 9.35,9.7025 8.95,9.5525 C8.40125,9.30125 8.05125,8.90125 7.95125,8.3525 C7.8,6.9525 7.55125,5.6025 7.35125,4.2525 C7.20125,3.60375 7.15125,3.0025 7.0025,2.35375 C6.95125,1.9025 6.75,1.4525 6.30125,1.2525 C5.65125,0.95375 5.00125,0.7025 4.35125,0.80375 C2.85125,0.90375 1.6525,1.5525 1.0525,3.0025 C0.7025,3.60375 0.55125,4.3525 0.45125,5.1025 C0.3025,6.5525 0.4025,8.0025 0.65125,9.40125 C0.8525,11.0525 1.0525,12.65125 1.3525,14.25 C1.60125,16.15 1.9525,18.05 2.3025,19.95 C2.5025,21.25 2.85125,22.6 3.10125,23.95 C3.40125,25.14875 3.80125,26.29875 4.30125,27.39875 C4.40125,27.74875 4.5025,28.15 4.55125,28.44875 C4.90125,29.74875 5.65125,30.74875 6.65,31.5975 C6.90125,31.7975 7.15125,31.99875 7.40125,32.24875 C8,32.6475 8.65,32.7475 9.35,32.54875 C9.75125,32.44875 10.1,32.3975 10.45,32.2975 L10.45,32.2975 Z" id="path74"></path>
            </g>
            <g id="g76" transform="translate(174.681875, 92.309125) scale(1, -1) translate(-174.681875, -92.309125) translate(160.306875, 77.309125)" fill="#356632">
                <path d="M8.75,8.75 C9.09875,8.75 9.44875,8.85 9.74875,8.9 C11.9,9.29875 13.89875,10 15.9475,10.6 C17.54625,11.15 19.09625,11.59875 20.7475,12 C21.9975,12.3 23.2475,12.5 24.4975,12.7 C24.8975,12.74875 25.395,12.89875 25.8475,12.89875 C26.8975,12.89875 27.64625,12.3 27.84625,11.25 C27.84625,11.15 27.84625,11 27.74625,10.95 C27.44625,10.70125 27.44625,10.6 27.74625,10.4 C27.995,10.05 27.995,9.7 27.84625,9.35 C27.695,8.7 27.295,8.20125 26.84625,7.65 C25.9475,6.8 24.8975,6.10125 23.7475,5.5 C20.69625,4.05 17.44875,2.70125 14.2475,1.60125 C12.44875,0.9525 10.69875,0.50125 8.79875,0.20125 C6.9,0.0025 5.1,0.55125 3.50125,1.65125 C3.15,1.95125 2.64875,2.25125 2.3,2.65125 C1.69875,3.20125 1.45,3.90125 1.35,4.75125 C1.10125,6.05 0.95,7.3 0.80125,8.60125 C0.65,10.1 0.6,11.65 0.65,13.15 C0.70125,15.04875 0.80125,16.9 0.85,18.7475 C1.00125,20.2975 1.35,21.89875 1.55,23.5475 C1.59875,23.9975 1.75,24.54875 1.85,25.0475 L1.85,25.8475 C1.85,26.49625 2.1,27.0975 2.4,27.64625 C2.55125,27.99625 2.7,28.2475 2.84875,28.4475 C3.15,28.89625 3.40125,29.09625 3.79875,29.2975 C4.8,29.54625 5.79875,29.4975 6.65,28.99625 C8.49875,28.0975 9.6,26.5475 9.9,24.5975 C10.0975,23.5975 9.9,22.5975 9.8,21.6975 C9.5,20.04875 9.19875,18.49875 8.99875,16.9 C8.85,15.89875 8.75,14.9 8.75,13.85 C8.65,12.15 8.75,10.5 8.75,8.75" id="path78"></path>
            </g>
            <g id="g80" transform="translate(94.296125, 31.542500) scale(1, -1) translate(-94.296125, -31.542500) translate(68.046125, 0.917500)" fill="#B9D432">
                <path d="M48.75,13.75 C52.9525,20.2325 52.485,27.3375 50.59875,34.42125 C50.3375,35.49875 49.58125,36.4175 48.97125,37.36125 C48.445,38.24375 47.92,39.12625 47.25,39.98375 C45.78375,42.4275 43.83375,44.19125 41.235,45.39125 C40.5175,45.6425 39.9575,46.295 38.995,47.10375 C40.025,47.65375 40.64125,47.98375 41.31875,48.39875 C43.10875,49.30375 44.175,52.25625 43.355,53.98625 C41.81375,56.86375 39.32,58.75875 36.13625,59.86 C35.735,60.015 35.13,60.06125 34.6925,59.985 C31.785,59.4875 28.90125,58.8425 26.01875,58.2025 C20.835,57.0125 19.25625,54.42375 14.56125,52.12125 C14.35625,52.0125 13.4125,51.40125 11.6725,50.205 C7.4175,47.08125 5.9275,41.36375 4.0825,36.4075 C2.10625,30.90625 0.3875,25.22375 1.11625,19.21125 C1.28,17.81875 1.92875,16.20875 2.735,14.99875 C4.4325,12.52 6.30875,10.29625 8.2475,8.16 C11.4525,4.7425 15.41625,2.5775 20.0175,1.49375 C24.7625,0.43625 29.25875,0.8325 33.89875,2.15 C37.3375,3.04 40.70375,4.36375 43.2625,6.89875 C45.23,8.9575 47.14875,11.305 48.75,13.75" id="path82"></path>
            </g>
            <g id="g84" transform="translate(94.343750, 33.976500) scale(1, -1) translate(-94.343750, -33.976500) translate(77.468750, 16.476500)" fill="#FFFFFF">
                <path d="M15,12.5 C15,12.55 14.94875,12.55 14.94875,12.65 C13.95,14.1 12.94875,15.59875 12,17.09875 C11.39875,17.94875 11.1,18.94875 11.25,19.99875 C11.3,20.74875 11.59875,21.54875 11.9,22.29875 C12.05,22.5475 12.15,22.8475 12.35,23.0475 C13.35,23.84875 14.4,24.2475 15.65,23.8975 C17.04875,23.5975 18.15,22.79875 18.9475,21.6975 C19.59875,20.84875 20.0975,19.99875 20.69875,19.14875 C21.1475,18.4 21.6975,17.69875 22.1975,17.05 L22.2975,17.05 L22.34875,17.09875 C22.8475,17.54875 22.9975,18.14875 22.7975,18.79875 C22.34875,20.4475 21.7475,22.09875 21.0475,23.64875 C20.24875,25.3475 18.99875,26.64625 17.29875,27.5475 C16.44875,27.99625 15.49875,28.0975 14.6,27.99625 C13.69875,27.89625 12.9,27.5975 12.1,27.2475 C10.6,26.5975 9.35,25.5475 8.15125,24.39875 C7.65,23.7975 7.3,23.14875 7.25125,22.3475 C7.2,21.54875 7.2,20.84875 7.10125,20.04875 C7.10125,18.84875 7.2,17.69875 7.45125,16.49875 C8.05,13.8 10.4,12.05 12.84875,12.05 C13.59875,12.05 14.34875,12.15 15,12.5 M15.24875,34.195 C16.54875,34.195 17.7975,34.095 19.0475,33.69625 C20.4975,33.24625 21.4975,32.29625 22.0975,30.84625 C22.2975,30.39625 22.54875,29.99625 22.9475,29.6475 C24.44875,28.1975 25.69875,26.5475 26.59625,24.69875 C27.64625,22.7475 28.2475,20.64875 28.59625,18.44875 C28.7475,17.29875 28.7475,16.14875 28.4475,15.15 C28.2475,14.55 27.99625,14 27.7975,13.5 C27.54625,12.95 27.3475,12.45 27.1475,11.90125 C26.9975,11.6 27.0475,11.3 27.3475,11.05125 C27.6975,10.65125 28.0975,10.35 28.49625,10.00125 C29.7975,8.85125 30.99625,7.50125 32.04625,6.05125 C32.69625,5.15125 32.895,4.25125 32.59625,3.10125 C32.49625,2.65125 32.29625,2.20125 32.19625,1.75125 C32.0975,1.55125 31.9975,1.4025 31.7975,1.35125 C31.39625,1.2025 30.99625,1.0025 30.5475,0.9025 C29.54625,0.50125 28.59625,0.55125 27.5975,1.0025 C26.7475,1.35125 25.9475,1.9525 25.1475,2.5525 L21.0475,5.85125 C20.4475,6.35125 19.84875,6.35125 19.1475,6.15125 C18.19875,5.80125 17.2,5.50125 16.24875,5.20125 C12.84875,4.35125 9.55125,4.90125 6.45,6.6 C5.6,7.10125 4.75125,7.65 4.05,8.30125 C3.60125,8.75125 3.2525,9.2 2.85125,9.75 C2.25125,10.4 1.80125,11.1 1.35125,11.84875 C0.7525,12.89875 0.45125,14 0.25125,15.19875 C0.05125,16.84875 -0.04875,18.4 0.05125,20.04875 C0.1025,21.6975 0.35125,23.24875 0.80125,24.8475 C1.1525,25.94875 1.75125,26.8475 2.55125,27.69625 C2.9,28.1975 3.40125,28.5975 3.75125,29.04625 C4.45125,29.6975 5,30.29625 5.70125,30.94625 C6.35,31.54625 7.05125,32.0475 7.9,32.39625 C9.2,32.89625 10.54875,33.4975 12,33.79625 C12.99875,34.095 14.14875,34.29625 15.24875,34.195" id="path86"></path>
            </g>
        </g>
    </g>
</svg>