<?xml version="1.0" encoding="utf-8"?>
<!-- Generator: Adobe Illustrator 16.0.0, SVG Export Plug-In . SVG Version: 6.00 Build 0)  -->
<!DOCTYPE svg PUBLIC "-//W3C//DTD SVG 1.1//EN" "http://www.w3.org/Graphics/SVG/1.1/DTD/svg11.dtd">
<svg version="1.1"
	 id="svg153" xmlns:dc="http://purl.org/dc/elements/1.1/" xmlns:cc="http://creativecommons.org/ns#" xmlns:rdf="http://www.w3.org/1999/02/22-rdf-syntax-ns#"
	 xmlns="http://www.w3.org/2000/svg" xmlns:xlink="http://www.w3.org/1999/xlink" x="0px" y="0px" width="3458.821px"
	 height="803.199px" viewBox="0 0 3458.821 803.199" enable-background="new 0 0 3458.821 803.199" xml:space="preserve">
<g>
	<path fill="#404041" d="M701.839,636.623l-17.031,2.503l-53.266-12.021c-13.805-21.039-20.707-31.002-20.707-29.889
		c0,1.112-1.5-44.806-4.509-137.761l31.562-37.57l30.89-8.014l44.419,2.17l43.746,33.062l7.013,139.429l-26.885,35.901
		l16.532,27.218l-1.669,14.027l-16.529,18.365l-15.03-2.503L701.839,636.623z M717.703,581.518l-5.177-118.72l-14.693-12.525
		l-29.724-0.5l-22.542,20.706l6.511,108.704l22.541,14.691l23.214,8.852L717.703,581.518z"/>
</g>
<g>
	<path fill="#404041" d="M787.668,422.891l64.955,2.169l3.005,32.396l-18.2,0.668l3.173,125.9l17.031,18.033l29.558,4.847
		l15.195-10.19l5.009-142.431l-12.023-0.502l5.676-30.89l61.783,0.499l4.342,30.391l-15.028-0.502l-5.677,151.452
		c-15.141,15.697-23.158,24.215-24.047,25.547c-0.778,1.446-17.363,4.676-49.759,9.686l-39.575-7.514
		c-23.156-20.596-35.177-30.727-36.066-30.392c-0.78,0.334-0.78-10.52,0-32.561l1.336-112.544c-9.24,1.78-13.858,2.173-13.858,1.171
		c0-1.111,0.835-11.968,2.504-32.562L787.668,422.891z"/>
</g>
<g>
	<path fill="#404041" d="M1045.488,609.575l15.022-2.174l-7.178,26.548l-70.965,0.171c-0.895-11.134-1.782-19.146-2.672-24.052
		c-0.56-3.112,1.726-4.06,6.849-2.835c2.557,0.558,5.172,1.45,7.844,2.673l4.341-161.973l-25.879,0.17l-0.334-30.392l64.621-0.166
		L1045.488,609.575z"/>
</g>
<g>
	<path fill="#404041" d="M1071.533,417.877l58.942-1.167l63.788,167.813l-7.846-167.146l58.942,1.002l-5.513,33.895l-12.523,0.503
		l1.837,153.952c7.123-0.33,11.131,0.396,12.023,2.177c0.777,1.894,0.336,11.686-1.339,29.387l-58.943-2.172l-58.275-161.804
		l3.005,159.633l-51.095,2.172l-2.335-32.229h15.524l-0.497-151.617h-16.863L1071.533,417.877z"/>
</g>
<g>
	<path fill="#404041" d="M1420.021,419.383l7.517,47.919l-30.393,0.668l-1.334-18.866l-31.894,2.172l3.503,161.134
		c8.459,0.335,13.417,0.169,14.865-0.499c1.334-0.777,2.672,6.568,4.009,22.039l-7.519,1.673c-49.09-0.447-74.972-0.67-77.644-0.67
		c-2.669,0-3.117-6.791-1.336-20.372l16.197-3.841l-4.008-162.139l-21.704-1.169l-2.008,20.537
		c-18.479-2.668-28.384-4.007-29.721-4.007s-0.666-14.858,2.001-44.58L1420.021,419.383L1420.021,419.383z"/>
</g>
<g>
	<path fill="#404041" d="M1635.594,614.077l-6.011,23.215l-57.944,0.333l-6.344-24.379l14.359-3.338l-14.528-28.724l-62.782-2.669
		l-12.021,35.735l14.025-2.174l-6.849,26.048l-66.791,0.334c-0.891-11.021-1.724-18.924-2.503-23.713
		c-0.557-3.002,1.56-3.892,6.345-2.668c2.444,0.558,4.949,1.393,7.513,2.503l62.285-173.491l-24.38,0.165l-0.335-29.722
		l78.815-0.335h12.688l47.59,196.372L1635.594,614.077z M1561.622,544.948l-21.208-79.647l-26.882,79.983L1561.622,544.948z"/>
</g>
<g>
	<path fill="#404041" d="M1770.512,635.117l-78.812-2.338v0.338l-61.617,0.666l-0.167-30.223l24.713-0.334l-7.014-162.138
		c-2.45,1.337-4.9,2.284-7.345,2.836c-4.9,1.339-7.123,0.446-6.677-2.671c0.774-4.897,1.553-12.966,2.336-24.211l67.456-0.835
		l7.181,26.549l-14.193-2.004l-4.004,164.31l51.095-0.498l9.686-18.704l21.541,4.844L1770.512,635.117z"/>
</g>
<g>
	<path fill="#404041" d="M2004.458,646.394l-48.257-14.696l-2.674,10.688l-72.134,0.171c-0.893-11.8-1.78-20.263-2.67-25.384
		c-0.557-3.226,1.777-4.23,7.016-3.003c2.557,0.665,5.176,1.612,7.848,2.836l4.338-170.822l-26.215,0.335l-0.337-32.057
		l139.431,3.505l35.064,31.39l1.504,160.138L2004.458,646.394z M2005.961,474.906l-18.87-25.213l-48.422,5.841l6.177,141.599
		l53.935,9.854L2005.961,474.906z"/>
</g>
<g>
	<path fill="#404041" d="M2087.446,637.209l2.004-1.503h-18.864c-0.896-11.572-1.785-19.87-2.673-24.876
		c-0.56-3.115,1.777-4.063,7.012-2.844c2.557,0.562,5.176,1.506,7.849,2.844l4.342-166.648l-26.217,0.167l-0.333-31.225
		l49.425-0.168h16.193l82.659,2.841l1.501,45.083l-24.712,1.171l-12.023-13.86l-45.75,1.835l2.169,52.266l29.057,0.668l3.171-10.518
		l19.372,2.499l1.498,39.076l-24.71,2.842l-4.341-10.354l-22.709,5.673l3.338,75.312l50.261,1.168l6.345-13.856
		c17.14-0.669,25.377-0.171,24.713,1.504c-0.779,1.779,0.053,16.253,2.504,43.411L2087.446,637.209z"/>
</g>
<g>
	<path fill="#404041" d="M2483.007,422.474l7.512,47.923l-30.391,0.669l-1.337-18.867l-31.89,2.172l3.503,161.136
		c8.461,0.333,13.415,0.167,14.858-0.502c1.341-0.776,2.674,6.571,4.014,22.04l-7.514,1.675
		c-49.095-0.449-74.976-0.672-77.648-0.672c-2.672,0-3.118-6.787-1.335-20.372l16.195-3.838l-4.01-162.142l-21.703-1.168
		l-2.003,20.538c-18.483-2.67-28.39-4.008-29.728-4.008c-1.336,0-0.666-14.86,2.005-44.584H2483.007z"/>
</g>
<g>
	<path fill="#404041" d="M2500.37,644.059l2.668-29.223l18.537-4.676l1.336-63.119l31.391-18.033
		c-3.67-1.445-6.343-2.447-8.017-3.006h0.173l-15.369-7.515l-3.338-65.959l35.4-26.883l67.959-6.179l2.841,1.002l60.951,0.166
		l5.679,36.234l-27.217-0.168l4.672,160.302c2.784-1.222,5.512-2.112,8.182-2.669c5.342-1.225,7.739-0.279,7.178,2.838
		c-0.889,4.789-1.834,12.748-2.835,23.88l-73.808-0.169c-0.666-14.362-1.001-23.487-1.001-27.387h7.849
		c1.336,0,2.395-0.387,3.174-1.166c0.664-0.781,0.893-1.671,0.664-2.674c-0.998-4.786-1.443-9.571-1.332-14.357
		c0-0.672-0.221-1.283-0.668-1.836l2.337-51.767l-17.7-0.499l-19.203,1.501c-0.111-0.109-0.336-0.222-0.668-0.334
		c-0.335-0.111-0.556-0.222-0.665-0.335l-14.696,14.36l-4.01,38.572l1.341,47.922L2500.37,644.059z M2620.929,516.483l7.848,2.504
		l3.343-68.462l-34.571-1l-20.368,15.196l17.197,54.098L2620.929,516.483z"/>
</g>
<g>
	<path fill="#404041" d="M2868.061,595.633l-31.224,44.249l-44.418,7.179l-50.927-12.188
		c-13.138-21.376-19.706-31.503-19.706-30.391c0,1.114-1.447-45.583-4.342-140.097l30.055-38.237l29.557-8.352l42.412,2.174
		l41.914,33.895L2868.061,595.633z M2828.321,588.287l-5.679-120.729l-16.363-12.69l-32.561-0.499l-24.715,21.038l7.015,110.706
		l24.879,15.028l25.382,8.852L2828.321,588.287z"/>
</g>
<g>
	<path fill="#404041" d="M2898.618,415.958l16.528,12.359l28.553-23.712l56.108,9.855l34.063,31.226l-1.503,157.798l-42.91,35.733
		l-81.657-8.018l-25.047-65.289l34.399-14.696l22.873,53.598l39.41,0.339l9.688-134.921l-13.196-29.892l-41.41,1.172l-17.532,23.542
		l-34.062-24.544L2898.618,415.958z"/>
</g>
<g>
	<path fill="#404041" d="M3259.131,617.172l-6.015,23.21l-57.942,0.336l-6.345-24.379l14.358-3.339l-14.522-28.724l-62.788-2.669
		l-12.021,35.732l14.025-2.171l-6.846,26.049l-66.793,0.335c-0.891-11.02-1.728-18.922-2.504-23.714
		c-0.557-3.003,1.557-3.893,6.344-2.668c2.449,0.558,4.952,1.392,7.516,2.503l62.283-173.492l-24.381,0.167l-0.333-29.724
		l78.817-0.336h12.689l47.59,196.371L3259.131,617.172z M3185.157,548.043l-21.208-79.647l-26.884,79.981L3185.157,548.043z"/>
</g>
<path fill="#404041" d="M3417.298,480.603l-8.846,22.537l-65.114,45.577l-21.536,14.525l-13.359,24.044l18.365,21.534l31.057-7.843
	l8.848-30.887c35.841,4.562,54.15,7.344,54.929,8.346c0.89,1.115,0.501,5.675-1.17,13.689l-14.521,5.68l-8.849,27.714
	c-25.823,8.014-39.573,12.02-41.243,12.02c-1.668,0-23.376-2.06-65.114-6.177l-29.05-51.923l10.683-35.562l85.987-59.105
	l8.345-19.365l-18.363-13.525l-26.046-3.672l-21.37,40.24c-26.601-8.686-40.739-13.193-42.408-13.526
	c-1.675-0.332,0.609-7.848,6.841-22.542l13.365,0.504l18.358-23.539l32.226-8.851l41.07,0.502
	c28.276,19.921,43.078,29.885,44.408,29.885L3417.298,480.603z"/>
<g>
	<path fill="#FFFFFF" d="M506.06,372.095c-0.008-0.053-0.021-0.105-0.031-0.158c-0.042-0.241-0.102-0.476-0.179-0.705
		c-0.02-0.059-0.036-0.117-0.059-0.175c-0.098-0.261-0.215-0.511-0.354-0.751c-0.031-0.055-0.066-0.105-0.101-0.158
		c-0.126-0.199-0.266-0.39-0.418-0.57c-0.042-0.05-0.079-0.102-0.124-0.148c-0.188-0.205-0.394-0.392-0.613-0.563
		c-0.058-0.044-0.117-0.085-0.176-0.126c-0.08-0.058-0.156-0.12-0.24-0.173c-0.148-0.093-0.303-0.171-0.458-0.247
		c-0.021-0.011-0.038-0.025-0.061-0.036l-84.512-39.898l8.506-33.537l-1.94-0.493l0.249-0.983c0.046-0.183,0.056-0.364,0.081-0.546
		c0.028-0.016,0.059-0.032,0.088-0.048c5.649-1.286,10.397-5.604,11.92-11.605l2.433-9.594l-0.384-0.097
		c3.527-0.777,6.992-2.113,10.264-4.062c10.675-6.354,16.679-17.547,16.898-29.115c1.457-9.463-0.396-19.055-5.355-27.389
		c-0.68-1.14-1.782-1.963-3.067-2.289c-1.285-0.327-2.647-0.129-3.787,0.551l-16.574,9.873c-2.372,1.413-3.149,4.481-1.738,6.854
		c1.65,2.771,2.122,6.02,1.33,9.145c-0.793,3.126-2.756,5.756-5.528,7.407c-1.869,1.112-3.998,1.701-6.156,1.701
		c-4.024,0-7.66-1.943-9.916-5.209c-0.465-5.97,2.381-11.969,7.872-15.238l-2.331-3.917c0.197-0.363,0.367-0.742,0.471-1.15
		c0.326-1.285,0.128-2.647-0.551-3.787l-9.869-16.58c-0.679-1.14-1.782-1.963-3.068-2.289c-1.284-0.326-2.646-0.129-3.786,0.551
		c-19.599,11.67-26.051,37.108-14.382,56.706c1.652,2.776,3.628,5.302,5.839,7.576l-1.902,7.501
		c-1.562,6.162-0.312,12.389,2.942,17.318c-0.064,0.172-0.143,0.338-0.188,0.518l-7.251,28.592l-87.599-41.357
		c14.411-1.654,27.248-3.973,37.154-6.069c10.141-2.146,18.367-4.293,23.484-5.716c2.909-0.809,5.15-1.477,6.518-1.895
		c2.846-0.869,5.786-1.768,5.786-5.487v-88.336c0-59.138-46.787-107.548-105.288-110.173V44.906h16.193c2.763,0,5-2.238,5-5
		c0-2.762-2.237-5-5-5h-16.193V28.53c5.653-2.053,9.712-7.464,9.712-13.818C279.619,6.6,273.019,0,264.907,0
		c-8.112,0-14.713,6.6-14.713,14.711c0,6.354,4.059,11.766,9.713,13.818v6.376h-16.199c-2.762,0-5,2.238-5,5c0,2.762,2.238,5,5,5
		h16.199v10.809c-58.505,2.623-105.295,51.033-105.295,110.173v88.336c0,2.158,1.386,4.072,3.435,4.748
		c1.532,0.505,28.996,9.444,65.831,14.017l-84.4,39.846l-6.766-26.678c-0.046-0.18-0.123-0.346-0.188-0.518
		c3.253-4.929,4.505-11.156,2.942-17.317l-1.902-7.502c2.211-2.274,4.187-4.8,5.838-7.576c11.669-19.598,5.218-45.036-14.381-56.706
		c-1.14-0.678-2.504-0.874-3.787-0.551c-1.285,0.326-2.39,1.149-3.067,2.289l-9.869,16.58c-0.679,1.14-0.877,2.502-0.551,3.787
		c0.325,1.285,1.148,2.389,2.289,3.066c2.77,1.649,4.731,4.279,5.524,7.405s0.32,6.373-1.33,9.145
		c-2.197,3.693-6.081,5.898-10.387,5.898c0,0-0.001,0-0.002,0c-2.158,0-4.287-0.589-6.158-1.703
		c-2.574-1.532-4.438-3.916-5.326-6.751c0.148-2.514,0.872-5.031,2.249-7.344l-1.812-1.08c0.204-0.468,0.428-0.93,0.692-1.375
		c1.412-2.372,0.635-5.44-1.737-6.854l-16.574-9.873c-1.139-0.679-2.502-0.875-3.787-0.551c-1.285,0.326-2.389,1.149-3.068,2.289
		c-5.651,9.495-7.271,20.623-4.557,31.334c2.716,10.713,9.44,19.725,18.937,25.375c2.766,1.647,5.706,2.938,8.745,3.896l1.898,7.483
		c1.426,5.625,4.958,10.359,9.946,13.329c0.294,0.175,0.594,0.332,0.894,0.492c0.025,0.182,0.035,0.363,0.081,0.546l8.173,32.229
		l-90.41,42.684c-0.021,0.011-0.039,0.025-0.06,0.036c-0.155,0.076-0.31,0.154-0.458,0.247c-0.086,0.054-0.162,0.116-0.242,0.174
		c-0.059,0.041-0.116,0.081-0.172,0.124c-0.223,0.172-0.43,0.36-0.617,0.564c-0.043,0.047-0.08,0.098-0.121,0.146
		c-0.153,0.182-0.293,0.373-0.42,0.573c-0.033,0.053-0.067,0.103-0.1,0.157c-0.14,0.239-0.256,0.49-0.354,0.751
		c-0.021,0.058-0.039,0.116-0.058,0.175c-0.077,0.229-0.137,0.464-0.179,0.705c-0.011,0.053-0.023,0.105-0.031,0.158
		c-0.033,0.234-0.055,0.471-0.055,0.71V682.3c0,1.914,1.093,3.66,2.813,4.498l238.479,115.896c0.029,0.014,0.062,0.022,0.094,0.038
		c0.065,0.029,0.135,0.058,0.203,0.084c0.133,0.056,0.268,0.104,0.403,0.146c0.074,0.023,0.148,0.045,0.224,0.064
		c0.143,0.036,0.286,0.065,0.431,0.092c0.065,0.01,0.132,0.022,0.198,0.033c0.211,0.026,0.422,0.043,0.633,0.043l0,0
		c0.211,0,0.422-0.017,0.633-0.043c0.066-0.011,0.133-0.023,0.199-0.035c0.144-0.023,0.287-0.053,0.43-0.09
		c0.074-0.021,0.148-0.041,0.225-0.064c0.136-0.043,0.27-0.092,0.4-0.146c0.07-0.026,0.14-0.055,0.207-0.086
		c0.03-0.014,0.062-0.022,0.093-0.036l238.477-115.896c1.722-0.838,2.813-2.584,2.813-4.498V372.805
		C506.115,372.566,506.094,372.33,506.06,372.095z"/>
	<g>
		<g>
			<path fill="#906600" d="M409.08,334.884l89.899,42.442c0.689,0.325,1.416,0.479,2.131,0.479c1.875,0,3.672-1.059,4.525-2.866
				c1.179-2.497,0.109-5.478-2.388-6.656l-90.399-42.679L409.08,334.884z"/>
			<path fill="#906600" d="M390.014,325.882l-129.511-61.144c-2.497-1.179-3.565-4.159-2.387-6.656
				c1.18-2.498,4.157-3.564,6.655-2.387l129.793,61.277L390.014,325.882z"/>
		</g>
		<g>
			<path fill="#536723" d="M24.164,377.806c-1.875,0-3.672-1.059-4.525-2.866c-1.179-2.497-0.11-5.478,2.387-6.656l238.479-112.588
				c2.499-1.175,5.479-0.11,6.656,2.387c1.179,2.497,0.109,5.478-2.388,6.656L26.295,377.327
				C25.605,377.652,24.879,377.806,24.164,377.806z"/>
		</g>
		<g>
			<g>
				<g>
					<path fill="#FFDD00" d="M110.869,361.327l5.858,23.11c3.858,15.212,19.318,24.418,34.529,20.561
						c15.211-3.859,24.416-19.319,20.558-34.532l-5.857-23.108l0,0c0,0-14.107-0.992-28.636,2.691
						C122.797,353.734,110.869,361.327,110.869,361.327z"/>
				</g>
				<g>
					<path fill="#FFDD00" d="M100.74,270.579l2.432,9.594c2.162,8.523,10.828,13.684,19.354,11.522
						c8.523-2.164,13.684-10.829,11.521-19.354l-2.435-9.593"/>
				</g>
				<g>
					
						<rect x="99.75" y="311.616" transform="matrix(0.2458 0.9693 -0.9693 0.2458 408.9558 116.0404)" fill="#ABE0F9" width="60.315" height="18.419"/>
				</g>
				<g>
					<path fill="#ABE0F9" d="M126.28,206.926c16.43,9.782,21.815,31.03,12.036,47.457c-9.779,16.426-31.031,21.816-47.456,12.036
						c-16.431-9.78-21.812-31.03-12.031-47.46l15.777,9.399c-4.591,7.711-2.062,17.688,5.651,22.279
						c7.708,4.592,17.686,2.061,22.276-5.65c4.593-7.713,2.062-17.688-5.649-22.278L126.28,206.926z"/>
				</g>
			</g>
			<g>
				<g>
					
						<rect x="370.872" y="313.608" transform="matrix(-0.2458 0.9693 -0.9693 -0.2458 824.4764 4.136)" fill="#ABE0F9" width="79.514" height="18.419"/>
				</g>
				<g>
					<path fill="#FFDD00" d="M429.944,362.327l-5.857,23.11c-3.859,15.212-19.319,24.418-34.53,20.561
						c-15.211-3.859-24.416-19.319-20.559-34.532l5.859-23.108l0,0c0,0,14.105-0.992,28.633,2.691
						C418.017,354.734,429.944,362.327,429.944,362.327z"/>
				</g>
				<g>
					<path fill="#FFDD00" d="M440.073,271.579l-2.433,9.594c-2.16,8.523-10.827,13.684-19.353,11.522
						c-8.523-2.164-13.684-10.829-11.521-19.354l2.433-9.593"/>
				</g>
				<g>
					<path fill="#ABE0F9" d="M414.532,207.926c-16.429,9.782-21.815,31.03-12.036,47.457c9.78,16.426,31.032,21.816,47.456,12.036
						c16.432-9.78,21.813-31.03,12.032-47.46l-15.778,9.399c4.592,7.711,2.063,17.688-5.651,22.279
						c-7.707,4.592-17.686,2.061-22.275-5.65c-4.592-7.713-2.062-17.688,5.649-22.278L414.532,207.926z"/>
				</g>
			</g>
			<g>
				<g>
					<path fill="#28598F" d="M124.685,358.559c-0.893,0-1.776-0.239-2.559-0.704c-1.14-0.678-1.962-1.781-2.288-3.066
						l-15.576-61.417c-0.679-2.677,0.94-5.397,3.618-6.076l18.756-4.757c1.284-0.325,2.648-0.127,3.787,0.551
						c1.139,0.678,1.962,1.781,2.288,3.066l15.576,61.417c0.679,2.677-0.94,5.397-3.618,6.076l-18.756,4.757
						C125.51,358.508,125.096,358.559,124.685,358.559z M115.185,295.759l13.117,51.724l9.062-2.298l-13.116-51.724L115.185,295.759
						z"/>
				</g>
				<g>
					<path fill="#906600" d="M141.344,414.826c-0.001,0-0.002,0-0.002,0c-15.951-0.002-29.834-10.812-33.76-26.292l-6.155-24.277
						c-0.53-2.092,0.341-4.287,2.161-5.446c0.539-0.343,13.389-8.455,29.246-12.477c10.131-2.569,19.986-3.108,26.473-3.108
						c3.156,0,5.104,0.135,5.187,0.141c2.152,0.151,3.966,1.667,4.495,3.759l6.155,24.275c4.725,18.626-6.587,37.625-25.213,42.349
						C147.113,414.463,144.224,414.826,141.344,414.826z M112.045,365.448l5.229,20.629c2.8,11.038,12.696,18.75,24.066,18.75
						c0.001,0,0.002,0,0.002,0c2.053,0,4.114-0.26,6.129-0.771c13.281-3.368,21.346-16.916,17.979-30.198l-5.23-20.629
						c-0.29-0.002-0.595-0.004-0.913-0.004c-4.844,0-14.402,0.364-24.016,2.802C125.308,358.559,116.502,362.979,112.045,365.448z"
						/>
				</g>
				<g>
					<path fill="#906600" d="M114.369,295.402c-3.865,0-7.674-1.039-11.081-3.068c-4.988-2.97-8.521-7.704-9.946-13.329
						l-2.556-10.076c-0.68-2.677,0.939-5.397,3.617-6.076c2.675-0.681,5.396,0.94,6.075,3.617l2.557,10.077
						c0.77,3.037,2.676,5.592,5.368,7.195c2.693,1.603,5.851,2.062,8.886,1.292c6.268-1.59,10.073-7.985,8.483-14.255l-2.555-10.077
						c-0.679-2.677,0.941-5.396,3.617-6.075c2.681-0.684,5.396,0.941,6.076,3.618l2.555,10.076
						c2.945,11.614-4.105,23.46-15.72,26.406C117.965,295.178,116.16,295.402,114.369,295.402z"/>
				</g>
				<g>
					<path fill="#28598F" d="M103.822,273.453c-7.418,0-14.723-2.015-21.125-5.828c-9.494-5.65-16.22-14.662-18.936-25.375
						c-2.714-10.711-1.096-21.839,4.557-31.334c0.681-1.14,1.783-1.963,3.068-2.289c1.285-0.324,2.648-0.128,3.787,0.551
						l16.574,9.873c2.372,1.413,3.149,4.481,1.737,6.854c-1.649,2.771-2.122,6.02-1.33,9.145c0.793,3.126,2.757,5.756,5.527,7.405
						c1.871,1.114,4,1.703,6.158,1.703c0.001,0,0.002,0,0.002,0c4.306,0,8.188-2.205,10.387-5.898
						c1.65-2.771,2.123-6.019,1.33-9.145s-2.756-5.756-5.524-7.405c-1.141-0.678-1.964-1.781-2.289-3.066
						c-0.326-1.285-0.128-2.647,0.551-3.787l9.869-16.58c0.679-1.14,1.781-1.963,3.067-2.289c1.283-0.323,2.647-0.127,3.787,0.551
						c19.599,11.67,26.05,37.108,14.381,56.706C131.98,265.708,118.347,273.452,103.822,273.453z M74.691,220.53
						c-2.429,6.096-2.879,12.78-1.235,19.263c2.059,8.122,7.157,14.955,14.356,19.239c4.857,2.893,10.394,4.421,16.009,4.421
						c11.02-0.001,21.36-5.873,26.989-15.325c7.978-13.398,4.784-30.397-6.812-40.099l-4.841,8.131
						c2.953,2.828,5.064,6.433,6.097,10.495c1.449,5.716,0.586,11.653-2.43,16.719c-3.961,6.651-11.233,10.783-18.98,10.783
						c-0.002,0-0.001,0-0.002,0c-3.961,0-7.859-1.076-11.273-3.111c-5.065-3.014-8.654-7.822-10.104-13.539
						c-1.03-4.062-0.892-8.238,0.358-12.134L74.691,220.53z"/>
				</g>
			</g>
			<g>
				<g>
					<path fill="#28598F" d="M405.129,358.559c-0.411,0-0.824-0.051-1.229-0.153l-18.756-4.757
						c-2.678-0.679-4.297-3.399-3.618-6.076l15.576-61.417c0.326-1.285,1.148-2.389,2.288-3.066c1.14-0.679,2.502-0.879,3.787-0.551
						l18.756,4.757c2.678,0.679,4.297,3.399,3.618,6.076l-15.576,61.417c-0.326,1.285-1.149,2.389-2.288,3.066
						C406.906,358.32,406.021,358.559,405.129,358.559z M392.448,345.185l9.062,2.298l13.117-51.724l-9.062-2.298L392.448,345.185z"
						/>
				</g>
				<g>
					<path fill="#906600" d="M388.472,414.826c-2.883,0-5.771-0.363-8.588-1.076c-6.34-1.609-11.832-4.869-16.134-9.207
						c-4.117-4.152,2.32-18.215,2.604-31.384c0.289-13.486-5.528-26.033-5.528-26.033c0.53-2.092,2.344-3.607,4.496-3.759
						c0.081-0.006,2.029-0.141,5.187-0.141c6.484,0,16.342,0.539,26.473,3.108c15.857,4.021,28.707,12.134,29.246,12.477
						c1.82,1.159,2.691,3.354,2.161,5.446l-6.155,24.276C418.306,404.014,404.424,414.826,388.472,414.826z M371.065,379.026
						c0,0-2.177,16.423-0.595,18.087c3.118,3.28,7.168,5.75,11.872,6.943c2.013,0.511,4.075,0.771,6.13,0.771
						c11.37,0,21.267-7.71,24.065-18.75l5.229-20.625c-4.47-2.472-13.303-6.901-23.245-9.423
						c-9.613-2.438-19.172-2.802-24.016-2.802C370.189,353.226,371.355,379.024,371.065,379.026z"/>
				</g>
				<g>
					<path fill="#906600" d="M415.445,295.402c-1.791,0-3.596-0.223-5.377-0.675c-11.615-2.946-18.666-14.792-15.721-26.407
						l2.555-10.075c0.68-2.677,3.398-4.297,6.076-3.618c2.676,0.679,4.296,3.398,3.617,6.075l-2.556,10.076
						c-1.59,6.271,2.218,12.666,8.485,14.256c3.037,0.771,6.191,0.311,8.884-1.292c2.693-1.604,4.601-4.158,5.369-7.194
						l2.556-10.078c0.68-2.676,3.397-4.292,6.075-3.617c2.679,0.679,4.297,3.399,3.618,6.076l-2.556,10.077
						c-1.426,5.624-4.958,10.358-9.946,13.328C423.118,294.363,419.31,295.402,415.445,295.402z"/>
				</g>
				<g>
					<path fill="#28598F" d="M425.992,273.453c-14.523,0-28.158-7.744-35.581-20.21c-11.669-19.598-5.217-45.036,14.382-56.706
						c1.14-0.68,2.502-0.877,3.786-0.551c1.286,0.326,2.391,1.149,3.068,2.289l9.869,16.58c0.679,1.14,0.877,2.502,0.551,3.787
						s-1.148,2.389-2.289,3.066c-2.77,1.649-4.731,4.279-5.524,7.405c-0.793,3.126-0.32,6.373,1.33,9.145
						c2.197,3.693,6.081,5.898,10.389,5.898c2.158,0,4.287-0.589,6.156-1.701c2.772-1.651,4.735-4.281,5.528-7.407
						c0.792-3.125,0.32-6.373-1.33-9.145c-1.411-2.372-0.634-5.44,1.738-6.854l16.574-9.873c1.14-0.68,2.502-0.878,3.787-0.551
						c1.285,0.326,2.389,1.149,3.067,2.289c5.652,9.495,7.271,20.623,4.558,31.334c-2.716,10.713-9.44,19.725-18.937,25.376
						C440.715,271.437,433.409,273.453,425.992,273.453z M405.816,208.029c-11.597,9.701-14.789,26.7-6.812,40.099
						c5.629,9.453,15.971,15.325,26.988,15.325c5.617,0,11.152-1.528,16.01-4.42c7.198-4.285,12.299-11.118,14.356-19.24
						c1.644-6.482,1.192-13.167-1.236-19.263l-8.131,4.843c1.25,3.896,1.39,8.071,0.358,12.134
						c-1.449,5.717-5.038,10.525-10.106,13.541c-3.413,2.033-7.312,3.109-11.271,3.109c-7.749,0-15.022-4.132-18.982-10.783
						c-3.016-5.065-3.879-11.003-2.43-16.719c1.031-4.062,3.143-7.667,6.097-10.495L405.816,208.029z"/>
				</g>
			</g>
			<g>
				<g>
					<g>
						<path fill="#EE402F" d="M326.726,320.333c0,0,35.382,13.032,35.382,52.712c0,39.679-57.556,130.611-57.556,130.611h0.001
							c0,0-25.578,5.051-42.678,5.051c-17.098,0-42.674-5.051-42.674-5.051s-57.558-90.933-57.558-130.611
							c0-39.68,35.384-52.712,35.384-52.712"/>
					</g>
					<path fill="#FFFFFF" d="M274.306,463.668c0,0,7.591,16.137-7.667,18.807s-13.314-9.983-13.314-9.983L274.306,463.668z"/>
					<g>
						<circle fill="#ABE0F9" cx="261.878" cy="358.956" r="14.205"/>
					</g>
					<g>
						<circle fill="#ABE0F9" cx="261.878" cy="411.312" r="14.205"/>
					</g>
					<g>
						<circle fill="#ABE0F9" cx="261.878" cy="463.667" r="14.205"/>
					</g>
					<g>
						<path fill="#ABE0F9" d="M161.645,257.75v-84.09c0-55.357,44.876-100.229,100.23-100.229
							c55.357,0,100.231,44.872,100.231,100.229v84.091h0.002c0,0-47.374,15.625-100.23,15.625
							C209.019,273.375,161.645,257.75,161.645,257.75z"/>
					</g>
					<g>
						<rect x="244.263" y="277.839" fill="#ABE0F9" width="30.147" height="24.075"/>
					</g>
					<g>
						<rect x="197.029" y="301.915" fill="#FFDD00" width="129.699" height="18.419"/>
					</g>
					<g>
						<line fill="none" x1="261.879" y1="320.333" x2="261.879" y2="344.751"/>
					</g>
					<g>
						<line fill="none" x1="261.879" y1="373.159" x2="261.879" y2="397.108"/>
					</g>
					<g>
						<line fill="none" x1="261.879" y1="425.514" x2="261.879" y2="449.463"/>
					</g>
					<g>
						<line fill="none" x1="261.879" y1="477.871" x2="261.879" y2="508.707"/>
					</g>
					<g>
						<polygon fill="#FFFFFF" points="194.966,187.796 194.966,195.833 326.728,195.833 326.728,228.626 330.9,228.626 
							330.9,187.796 						"/>
						<path fill="#FFFFFF" d="M197.027,130.152c0,0,7.105-28.812,27.173-26.498c20.065,2.315,38.073,19.295,28.04,35.759
							L197.027,130.152z"/>
						<path fill="#FFFFFF" d="M277.451,119.604c0,0,19.026-24.81,38.587-12.091c19.562,12.719,22.896,40.389,0,43.477
							L277.451,119.604z"/>
						<g>
							<path fill="#F9A51A" d="M253.842,142.373c0,15.688-12.721,28.408-28.404,28.408c-15.692-0.001-28.412-12.72-28.41-28.409
								c-0.002-15.688,12.718-28.406,28.406-28.406C241.121,113.965,253.84,126.682,253.842,142.373z"/>
						</g>
						<g>
							<path fill="#F9A51A" d="M269.911,142.373c0.002,15.688,12.724,28.408,28.407,28.408c15.69-0.001,28.409-12.72,28.409-28.409
								c0-15.688-12.719-28.406-28.409-28.406C282.633,113.965,269.913,126.682,269.911,142.373z"/>
						</g>
						<g>
							<rect x="197.027" y="193.423" fill="#FFDD00" width="129.701" height="41.539"/>
						</g>
						<g>
							<line fill="none" x1="229.453" y1="193.423" x2="229.453" y2="234.962"/>
						</g>
						<g>
							<line fill="none" x1="261.876" y1="193.423" x2="261.876" y2="234.962"/>
						</g>
						<g>
							<line fill="none" x1="294.303" y1="193.423" x2="294.303" y2="234.962"/>
						</g>
					</g>
				</g>
			</g>
			<g>
				<g>
					<path fill="#790000" d="M264.904,522.85c-18.238,0-44.682-5.182-45.799-5.401c-1.345-0.267-2.521-1.072-3.255-2.232
						c-2.501-3.949-61.237-97.235-61.237-139.876c0-23.333,10.976-38.428,20.183-46.98c9.913-9.21,19.842-12.931,20.26-13.084
						c2.592-0.957,5.466,0.372,6.42,2.963c0.955,2.592-0.372,5.466-2.963,6.42c-1.373,0.515-33.898,13.122-33.898,50.682
						c0,16.243,10.26,44.574,29.668,81.927c12.479,24.019,25.086,44.66,28.875,50.771c6.617,1.219,27.349,4.813,41.748,4.813
						c14.422,0,35.15-3.598,41.758-4.815c20.904-33.451,58.534-101.723,58.534-132.695c0-37.56-32.523-50.167-33.909-50.686
						c-2.58-0.967-3.898-3.842-2.938-6.426c0.959-2.584,3.822-3.905,6.408-2.953c0.418,0.153,10.348,3.875,20.26,13.084
						c9.206,8.554,20.181,23.647,20.181,46.98c0,41.27-55.019,129.979-60.825,139.223c-0.968,2.381-3.625,2.883-4.898,3.123
						c-0.782,0.146-1.919,0.356-3.341,0.61c-2.586,0.459-6.654,1.152-11.344,1.849C282.652,521.939,272.597,522.85,264.904,522.85z"
						/>
				</g>
				<g>
					<path fill="#28598F" d="M264.907,275.635c-55.691,0-104.798-15.983-106.86-16.664c-2.049-0.676-3.435-2.59-3.435-4.748v-88.336
						c0-60.814,49.478-110.291,110.291-110.291c60.815,0,110.292,49.477,110.292,110.291v88.336c0,3.72-2.94,4.618-5.786,5.487
						c-1.366,0.418-3.607,1.086-6.518,1.895c-5.117,1.423-13.345,3.569-23.484,5.716
						C321.491,271.114,294.022,275.635,264.907,275.635z M164.613,250.531c12.102,3.592,54.466,15.104,100.295,15.104
						c45.885,0,88.201-11.51,100.29-15.104l-0.002-84.646c0-55.301-44.991-100.291-100.292-100.291s-100.291,44.99-100.291,100.291
						V250.531L164.613,250.531z"/>
				</g>
				<g>
					<path fill="#28598F" d="M283.41,305.616h-37.009c-2.762,0-5-2.238-5-5v-29.98c0-2.762,2.238-5,5-5h37.009c2.762,0,5,2.238,5,5
						v29.98C288.41,303.377,286.172,305.616,283.41,305.616z M251.402,295.616h27.009v-19.98h-27.009V295.616L251.402,295.616z"/>
				</g>
				<g>
					<path fill="#790000" d="M264.907,522.85c-2.762,0-5-2.237-5-5v-32.395c0-2.762,2.238-5,5-5c2.761,0,5,2.238,5,5v32.395
						C269.907,520.611,267.668,522.85,264.907,522.85z"/>
				</g>
				<g>
					<path fill="#790000" d="M264.907,457.85c-2.762,0-5-2.237-5-5v-22.395c0-2.762,2.238-5,5-5c2.761,0,5,2.238,5,5v22.395
						C269.907,455.611,267.668,457.85,264.907,457.85z"/>
				</g>
				<g>
					<path fill="#790000" d="M264.907,402.85c-2.762,0-5-2.237-5-5v-22.395c0-2.762,2.238-5,5-5c2.761,0,5,2.238,5,5v22.395
						C269.907,400.612,267.668,402.85,264.907,402.85z"/>
				</g>
				<g>
					<path fill="#790000" d="M264.907,347.85c-2.762,0-5-2.238-5-5v-22.395c0-2.762,2.238-5,5-5c2.761,0,5,2.238,5,5v22.395
						C269.907,345.612,267.668,347.85,264.907,347.85z"/>
				</g>
				<g>
					<g>
						<path fill="#28598F" d="M264.907,29.423c-8.112,0-14.713-6.6-14.713-14.712C250.195,6.6,256.795,0,264.907,0
							c8.111,0,14.712,6.6,14.712,14.711C279.619,22.824,273.019,29.423,264.907,29.423z M264.907,10
							c-2.6,0-4.713,2.113-4.713,4.711c0,2.599,2.113,4.712,4.713,4.712c2.599,0,4.712-2.113,4.712-4.712
							C269.619,12.114,267.506,10,264.907,10z"/>
					</g>
					<g>
						<path fill="#28598F" d="M286.101,44.906h-42.394c-2.762,0-5-2.238-5-5c0-2.762,2.238-5,5-5h42.394c2.762,0,5,2.238,5,5
							C291.101,42.668,288.863,44.906,286.101,44.906z"/>
					</g>
					<g>
						<path fill="#28598F" d="M264.907,65.596c-2.762,0-5-2.238-5-5V24.423c0-2.762,2.238-5,5-5c2.761,0,5,2.238,5,5v36.173
							C269.907,63.358,267.668,65.596,264.907,65.596z"/>
					</g>
				</g>
				<g>
					<g>
						<path fill="#906600" d="M226.625,167.862L226.625,167.862c-9.31-0.001-18.06-3.625-24.641-10.206
							c-6.581-6.581-10.205-15.331-10.204-24.638c-0.001-9.305,3.623-18.054,10.203-24.635c6.581-6.582,15.331-10.206,24.639-10.206
							c19.21,0,34.841,15.63,34.843,34.842C261.465,152.232,245.836,167.862,226.625,167.862z M226.622,108.177
							c-6.637,0-12.874,2.584-17.565,7.276c-4.693,4.692-7.276,10.931-7.274,17.564c-0.002,6.637,2.582,12.875,7.274,17.566
							c4.691,4.692,10.932,7.277,17.568,7.277c13.696,0,24.84-11.144,24.84-24.842C251.463,119.322,240.318,108.177,226.622,108.177
							z"/>
					</g>
					<g>
						<path fill="#906600" d="M303.187,167.862L303.187,167.862c-19.21,0-34.84-15.63-34.843-34.841
							c0.003-19.214,15.633-34.844,34.843-34.844c19.213,0,34.843,15.63,34.843,34.842C338.03,152.23,322.4,167.861,303.187,167.862
							z M303.187,108.177c-13.696,0-24.842,11.146-24.843,24.844c0.001,13.696,11.146,24.841,24.843,24.841
							c13.698-0.001,24.843-11.146,24.843-24.843C328.03,119.321,316.885,108.177,303.187,108.177z"/>
					</g>
					<path fill="#906600" d="M333.03,181.648H196.781c-2.762,0-5,2.238-5,5v43.636c0,2.762,2.238,5,5,5H333.03c2.761,0,5-2.238,5-5
						v-43.636C338.03,183.886,335.79,181.648,333.03,181.648z M269.904,191.648h24.064v33.636h-24.064V191.648z M259.904,225.284
						h-24.061v-33.636h24.061V225.284z M201.781,191.648h24.062v33.636h-24.062V191.648z M328.03,225.284h-24.062v-33.636h24.062
						V225.284z"/>
				</g>
				<g>
					<path fill="#28598F" d="M264.907,380.458c-10.985,0-19.923-8.937-19.923-19.921s8.938-19.921,19.923-19.921
						c10.983,0,19.921,8.937,19.921,19.922C284.828,371.522,275.891,380.458,264.907,380.458z M264.907,350.616
						c-5.472,0-9.923,4.45-9.923,9.921c0,5.471,4.451,9.921,9.923,9.921c5.47,0,9.921-4.45,9.921-9.92
						C274.828,355.067,270.377,350.616,264.907,350.616z"/>
				</g>
				<g>
					<path fill="#28598F" d="M264.907,435.455c-10.985,0-19.923-8.937-19.923-19.92c0-10.984,8.938-19.919,19.923-19.919
						c10.983,0,19.921,8.937,19.921,19.921C284.828,426.52,275.891,435.455,264.907,435.455z M264.907,405.615
						c-5.472,0-9.923,4.449-9.923,9.92s4.451,9.92,9.923,9.92c5.47,0,9.921-4.449,9.921-9.918
						C274.828,410.066,270.377,405.615,264.907,405.615z"/>
				</g>
				<g>
					<path fill="#28598F" d="M264.907,490.455c-10.985,0-19.923-8.937-19.923-19.922c0-10.984,8.938-19.92,19.923-19.92
						c10.983,0,19.921,8.938,19.921,19.922C284.828,481.519,275.891,490.455,264.907,490.455z M264.907,460.613
						c-5.472,0-9.923,4.451-9.923,9.92c0,5.471,4.451,9.922,9.923,9.922c5.47,0,9.921-4.449,9.921-9.92
						S270.377,460.613,264.907,460.613z"/>
				</g>
				<g>
					<path fill="#906600" d="M333.03,324.965H196.783c-2.763,0-5-2.238-5-5v-19.35c0-2.762,2.237-5,5-5H333.03c2.761,0,5,2.238,5,5
						v19.35C338.03,322.727,335.79,324.965,333.03,324.965z M201.783,314.965H328.03v-9.35H201.783V314.965z"/>
				</g>
			</g>
		</g>
		<g>
			<g>
				<g>
					<polygon fill="#FBAE17" points="258.639,786.199 20.161,670.303 20.161,376.805 258.639,492.701 					"/>
				</g>
				<g>
					<g>
						<path fill="#FFFFFF" d="M151.219,653.627c-0.002,0-0.002,0-0.004,0c-5.651-0.002-11.5-1.451-17.383-4.311
							c-24.927-12.113-44.452-46.599-44.452-78.509v-21.85c0-26.146,13.513-43.715,33.624-43.715c5.649,0,11.5,1.449,17.385,4.311
							c24.926,12.111,44.45,46.599,44.45,78.507v21.852c0,12.461-3.046,23.168-8.809,30.965
							C169.954,649.098,161.141,653.627,151.219,653.627z M123.004,520.244c-11.314,0-18.624,11.271-18.624,28.715v21.85
							c0,25.759,16.489,55.531,36.009,65.017c3.823,1.858,7.467,2.801,10.828,2.803h0.002c5.191,0,9.48-2.244,12.75-6.668
							c3.84-5.193,5.87-12.818,5.87-22.047v-21.853c0-25.756-16.489-55.53-36.007-65.016
							C130.008,521.186,126.364,520.244,123.004,520.244z"/>
					</g>
					<g>
						<path fill="#FFFFFF" d="M181.926,675.746c-2.604,0-5.135-1.357-6.521-3.781l-32.791-57.418
							c-2.055-3.598-0.804-8.18,2.794-10.231c3.596-2.056,8.178-0.806,10.231,2.793l32.791,57.418
							c2.055,3.598,0.804,8.178-2.793,10.231C184.465,675.428,183.186,675.746,181.926,675.746z"/>
					</g>
				</g>
			</g>
			<g>
				<g>
					<polygon fill="#ACC84F" points="266.639,780.199 505.115,664.303 505.115,374.805 266.639,490.701 					"/>
				</g>
				<g>
					<g>
						<path fill="#FFFFFF" d="M347.37,546.537c-2.78,0-5.452-1.555-6.75-4.225c-1.811-3.726-0.259-8.214,3.468-10.023l77.026-37.434
							c3.726-1.81,8.213-0.259,10.023,3.467c1.811,3.727,0.259,8.215-3.467,10.022l-77.027,37.437
							C349.589,546.293,348.471,546.537,347.37,546.537z"/>
					</g>
					<g>
						<path fill="#FFFFFF" d="M385.878,648.703c-4.143,0-7.5-3.357-7.5-7.5V520.316c0-4.144,3.357-7.5,7.5-7.5
							c4.142,0,7.5,3.356,7.5,7.5v120.887C393.378,645.346,390.019,648.703,385.878,648.703z"/>
					</g>
				</g>
			</g>
			<g>
				<g>
					<path fill="#906600" d="M155.218,660.127c-0.001,0-0.002,0-0.004,0c-5.271-0.002-10.751-1.367-16.29-4.059
						c-24.137-11.73-43.045-45.229-43.045-76.261v-21.85c0-24.652,12.508-41.215,31.124-41.215c5.269,0,10.751,1.365,16.292,4.059
						c24.137,11.729,43.043,45.228,43.043,76.258v21.853c0,11.922-2.876,22.115-8.318,29.479
						C172.426,655.957,164.328,660.127,155.218,660.127z M127.003,526.744c-12.833,0-21.124,12.252-21.124,31.215v21.85
						c0,27.064,16.785,57.238,37.416,67.267c4.166,2.024,8.178,3.051,11.92,3.053c0.001,0,0.002,0,0.003,0
						c5.942,0,11.047-2.656,14.761-7.682c4.16-5.627,6.359-13.767,6.359-23.533v-21.853c0-27.063-16.783-57.237-37.414-67.264
						C134.756,527.771,130.744,526.744,127.003,526.744z"/>
				</g>
				<g>
					<path fill="#906600" d="M185.922,682.246c-1.736,0-3.423-0.906-4.346-2.521l-32.791-57.418
						c-1.369-2.397-0.535-5.453,1.861-6.821c2.398-1.365,5.452-0.535,6.821,1.862l32.791,57.418c1.369,2.396,0.535,5.451-1.862,6.82
						C187.615,682.033,186.763,682.246,185.922,682.246z"/>
				</g>
			</g>
			<g>
				<g>
					<path fill="#536723" d="M343.368,552.035c-1.854,0-3.637-1.035-4.501-2.814c-1.207-2.483-0.172-5.477,2.312-6.684
						l77.026-37.435c2.484-1.204,5.477-0.172,6.684,2.312c1.207,2.481,0.172,5.475-2.312,6.682l-77.026,37.435
						C344.846,551.873,344.101,552.035,343.368,552.035z"/>
				</g>
				<g>
					<path fill="#536723" d="M381.877,654.203c-2.763,0-5-2.238-5-5V528.316c0-2.763,2.237-5,5-5c2.762,0,5,2.237,5,5v120.887
						C386.877,651.965,384.638,654.203,381.877,654.203z"/>
				</g>
			</g>
			<g>
				<g>
					<path fill="#906600" d="M262.642,533.703c-1.854,0-3.637-1.035-4.501-2.816c-1.207-2.481-0.172-5.475,2.312-6.682
						L498.93,408.309c2.48-1.204,5.476-0.174,6.683,2.312s0.172,5.477-2.312,6.684L264.824,533.199
						C264.121,533.541,263.375,533.703,262.642,533.703z"/>
				</g>
			</g>
			<g>
				<g>
					<path fill="#906600" d="M262.642,763.201c-1.854,0-3.637-1.035-4.501-2.816c-1.207-2.481-0.172-5.475,2.312-6.682
						L498.93,637.807c2.48-1.207,5.476-0.174,6.683,2.312c1.207,2.484,0.172,5.477-2.312,6.684L264.824,762.697
						C264.121,763.039,263.375,763.201,262.642,763.201z"/>
				</g>
			</g>
			<g>
				<path fill="#536723" d="M262.638,803.199c-0.924,0-1.844-0.256-2.652-0.763c-1.461-0.913-2.348-2.516-2.348-4.237V488.701
					c0-1.914,1.093-3.66,2.814-4.496l238.477-115.897c1.551-0.752,3.379-0.654,4.838,0.259c1.461,0.914,2.348,2.516,2.348,4.238
					v309.498c0,1.914-1.093,3.66-2.813,4.498L264.824,802.697C264.133,803.033,263.385,803.199,262.638,803.199z M267.638,491.83
					v298.381l228.477-111.037v-298.38L267.638,491.83z"/>
			</g>
			<g>
				<path fill="#536723" d="M262.635,533.703c-0.732,0-1.478-0.162-2.182-0.504L21.974,417.303
					c-2.482-1.207-3.519-4.199-2.312-6.684c1.206-2.484,4.196-3.521,6.683-2.312l238.479,115.896
					c2.482,1.207,3.519,4.199,2.312,6.682C266.271,532.666,264.489,533.703,262.635,533.703z"/>
			</g>
			<g>
				<path fill="#536723" d="M262.635,763.201c-0.732,0-1.478-0.162-2.182-0.504L21.974,646.801
					c-2.482-1.207-3.519-4.199-2.312-6.684c1.206-2.484,4.196-3.521,6.683-2.312l238.479,115.896
					c2.482,1.207,3.519,4.199,2.312,6.682C266.271,762.164,264.489,763.201,262.635,763.201z"/>
			</g>
			<g>
				<path fill="#906600" d="M262.638,803.199c-0.746,0-1.493-0.166-2.186-0.502L21.974,686.801
					c-1.722-0.838-2.813-2.584-2.813-4.498V372.805c0-1.723,0.887-3.324,2.348-4.238s3.289-1.009,4.838-0.259l238.479,115.897
					c1.722,0.836,2.813,2.582,2.813,4.496v309.498c0,1.723-0.887,3.324-2.348,4.237
					C264.483,802.943,263.562,803.199,262.638,803.199z M29.16,679.174l228.479,111.037V491.83L29.16,380.794V679.174z"/>
			</g>
		</g>
	</g>
</g>
</svg>
