<?xml version="1.0" encoding="UTF-8"?>
<svg width="262px" height="68px" viewBox="0 0 262 68" version="1.1" xmlns="http://www.w3.org/2000/svg" xmlns:xlink="http://www.w3.org/1999/xlink">
    <!-- Generator: Sketch 3.8.3 (29802) - http://www.bohemiancoding.com/sketch -->
    <title>Group</title>
    <desc>Created with Sketch.</desc>
    <defs></defs>
    <g id="Page-1" stroke="none" stroke-width="1" fill="none" fill-rule="evenodd">
        <g id="Group">
            <path d="M54.524375,14.7111888 C59.255625,22.0086888 58.729375,30.0061888 56.605625,37.9811888 C56.311875,39.1949388 55.460625,40.2286888 54.773125,41.2911888 C54.181875,42.2849388 53.590625,43.2786888 52.835625,44.2436888 C51.185625,46.9949388 48.990625,48.9786888 46.064375,50.3311888 C45.256875,50.6136888 44.626875,51.3486888 43.544375,52.2574388 C44.703125,52.8774388 45.395625,53.2486888 46.159375,53.7161888 C48.174375,54.7361888 49.374375,58.0586888 48.451875,60.0074388 C46.716875,63.2461888 43.909375,65.3786888 40.325625,66.6174388 C39.873125,66.7924388 39.190625,66.8449388 38.699375,66.7599388 C35.426875,66.1986888 32.180625,65.4736888 28.935625,64.7524388 C23.099375,63.4136888 21.321875,60.4986888 16.038125,57.9074388 C15.806875,57.7849388 14.744375,57.0961888 12.784375,55.7499388 C7.994375,52.2336888 6.319375,45.7961888 4.239375,40.2174388 C2.015625,34.0236888 0.080625,27.6274388 0.901875,20.8586888 C1.086875,19.2911888 1.816875,17.4786888 2.725625,16.1161888 C4.634375,13.3261888 6.746875,10.8236888 8.928125,8.41868881 C12.538125,4.57118881 16.999375,2.13243881 22.179375,0.913688808 C27.519375,-0.277561192 32.583125,0.168688808 37.806875,1.65243881 C41.678125,2.65368881 45.468125,4.14493881 48.348125,6.99743881 C50.561875,9.31618881 52.723125,11.9586888 54.524375,14.7111888" id="path90" fill="#B9D432" transform="translate(29.439320, 33.515657) scale(1, -1) translate(-29.439320, -33.515657) "></path>
            <path d="M27.139125,30.6011706 C27.139125,30.6586706 27.080375,30.6586706 27.080375,30.7711706 C25.956625,32.4024206 24.829125,34.0911706 23.760375,35.7786706 C23.085375,36.7361706 22.747875,37.8624206 22.916625,39.0436706 C22.972875,39.8874206 23.310375,40.7874206 23.647875,41.6324206 C23.817875,41.9124206 23.930375,42.2499206 24.155375,42.4761706 C25.281625,43.3774206 26.462875,43.8261706 27.869125,43.4324206 C29.445375,43.0936706 30.684125,42.1949206 31.582875,40.9561706 C32.315375,39.9999206 32.877875,39.0436706 33.552875,38.0861706 C34.059125,37.2424206 34.677875,36.4549206 35.240375,35.7236706 L35.352875,35.7236706 L35.410375,35.7786706 C35.972875,36.2849206 36.141625,36.9599206 35.916625,37.6924206 C35.410375,39.5486706 34.735375,41.4074206 33.945375,43.1524206 C33.047875,45.0649206 31.641625,46.5274206 29.725375,47.5411706 C28.770375,48.0474206 27.700375,48.1599206 26.687875,48.0474206 C25.674125,47.9336706 24.774125,47.5974206 23.874125,47.2024206 C22.185375,46.4711706 20.779125,45.2899206 19.427875,43.9961706 C18.865375,43.3199206 18.469125,42.5886706 18.415375,41.6874206 C18.357875,40.7874206 18.357875,39.9999206 18.246625,39.0999206 C18.246625,37.7486706 18.357875,36.4549206 18.640375,35.1036706 C19.315375,32.0649206 21.960375,30.0949206 24.716625,30.0949206 C25.560375,30.0949206 26.406625,30.2074206 27.139125,30.6011706 M27.419125,55.0249206 C28.882875,55.0249206 30.289125,54.9124206 31.695375,54.4636706 C33.327875,53.9561706 34.454125,52.8861706 35.129125,51.2536706 C35.352875,50.7486706 35.636625,50.2986706 36.085375,49.9049206 C37.775375,48.2724206 39.182875,46.4149206 40.192875,44.3336706 C41.375375,42.1374206 42.051625,39.7749206 42.444125,37.2974206 C42.615375,36.0036706 42.615375,34.7086706 42.276625,33.5849206 C42.051625,32.9086706 41.769125,32.2911706 41.545375,31.7261706 C41.262875,31.1086706 41.037875,30.5449206 40.812875,29.9274206 C40.644125,29.5886706 40.701625,29.2511706 41.037875,28.9699206 C41.434125,28.5199206 41.882875,28.1811706 42.331625,27.7886706 C43.796625,26.4936706 45.145375,24.9736706 46.327875,23.3411706 C47.060375,22.3286706 47.284125,21.3161706 46.947875,20.0211706 C46.835375,19.5149206 46.609125,19.0074206 46.496625,18.5011706 C46.385375,18.2774206 46.272875,18.1086706 46.047875,18.0511706 C45.596625,17.8836706 45.145375,17.6586706 44.640375,17.5461706 C43.514125,17.0936706 42.444125,17.1511706 41.320375,17.6586706 C40.364125,18.0511706 39.461625,18.7274206 38.562875,19.4036706 L33.945375,23.1161706 C33.271625,23.6799206 32.596625,23.6799206 31.807875,23.4536706 C30.739125,23.0599206 29.614125,22.7224206 28.544125,22.3861706 C24.716625,21.4286706 21.004125,22.0474206 17.514125,23.9599206 C16.556625,24.5236706 15.601625,25.1424206 14.812875,25.8749206 C14.305375,26.3811706 13.912875,26.8861706 13.462875,27.5049206 C12.786625,28.2374206 12.280375,29.0249206 11.774125,29.8686706 C11.099125,31.0499206 10.760375,32.2911706 10.535375,33.6399206 C10.310375,35.4974206 10.196625,37.2424206 10.310375,39.0999206 C10.367875,40.9561706 10.649125,42.7011706 11.154125,44.5011706 C11.549125,45.7411706 12.224125,46.7524206 13.124125,47.7099206 C13.517875,48.2724206 14.081625,48.7224206 14.475375,49.2286706 C15.262875,49.9611706 15.881625,50.6361706 16.670375,51.3661706 C17.401625,52.0424206 18.190375,52.6061706 19.145375,52.9999206 C20.609125,53.5624206 22.127875,54.2386706 23.760375,54.5761706 C24.885375,54.9124206 26.180375,55.1374206 27.419125,55.0249206" id="path94" fill="#FFFFFF" transform="translate(28.683209, 36.146898) scale(1, -1) translate(-28.683209, -36.146898) "></path>
            <path d="M110.200125,52.8605 L113.215125,52.8605 C114.248875,52.8605 115.217625,52.9905 116.118875,53.24925 C117.020125,53.508 117.803875,53.903 118.468875,54.4355 C119.133875,54.968 119.657625,55.64425 120.042625,56.46425 C120.427625,57.28425 120.618875,58.2555 120.618875,59.37925 C120.618875,60.50175 120.427625,61.47425 120.042625,62.29425 C119.657625,63.11425 119.133875,63.7905 118.468875,64.323 C117.803875,64.8555 117.020125,65.2505 116.118875,65.50925 C115.217625,65.76675 114.248875,65.89675 113.215125,65.89675 L110.200125,65.89675 L110.200125,52.8605 L110.200125,52.8605 Z M108.736375,67.22675 L113.591375,67.22675 C114.951375,67.22675 116.103875,67.05925 117.050125,66.728 C117.995125,66.3955 118.782625,65.9705 119.411375,65.453 C120.038875,64.9355 120.533875,64.363 120.896375,63.73425 C121.258875,63.10675 121.525125,62.50425 121.693875,61.928 C121.863875,61.35175 121.971375,60.83175 122.016375,60.3655 C122.060125,59.89925 122.082625,59.5705 122.082625,59.37925 C122.082625,59.18675 122.060125,58.858 122.016375,58.393 C121.971375,57.92675 121.863875,57.40675 121.693875,56.8305 C121.525125,56.253 121.258875,55.6505 120.896375,55.023 C120.533875,54.39425 120.038875,53.823 119.411375,53.30425 C118.782625,52.78675 117.995125,52.363 117.050125,52.0305 C116.103875,51.69675 114.951375,51.53175 113.591375,51.53175 L108.736375,51.53175 L108.736375,67.22675 L108.736375,67.22675 Z" id="path98" fill="#356632" transform="translate(115.409500, 59.379250) scale(1, -1) translate(-115.409500, -59.379250) "></path>
            <polygon id="path102" fill="#356632" transform="translate(130.340500, 59.379625) scale(1, -1) translate(-130.340500, -59.379625) " points="125.363 67.22775 134.96175 67.22775 134.96175 65.89775 126.8255 65.89775 126.8255 60.31025 134.45175 60.31025 134.45175 58.98025 126.8255 58.98025 126.8255 52.8615 135.318 52.8615 135.318 51.5315 125.363 51.5315"></polygon>
            <polygon id="path106" fill="#356632" transform="translate(148.485000, 59.379500) scale(1, -1) translate(-148.485000, -59.379500) " points="147.754375 65.897 142.388125 65.897 142.388125 67.227 154.581875 67.227 154.581875 65.897 149.216875 65.897 149.216875 51.532 147.754375 51.532"></polygon>
            <path d="M158.46,60.30925 L161.56375,60.30925 C162.3325,60.30925 162.9575,60.40675 163.4375,60.59675 C163.9175,60.7905 164.29125,61.02675 164.5575,61.308 C164.82375,61.588 165.00375,61.89175 165.10125,62.2155 C165.19625,62.5405 165.245,62.83675 165.245,63.103 C165.245,63.36925 165.19625,63.6655 165.10125,63.9905 C165.00375,64.3155 164.82375,64.618 164.5575,64.89925 C164.29125,65.17925 163.9175,65.41675 163.4375,65.608 C162.9575,65.8005 162.3325,65.89675 161.56375,65.89675 L158.46,65.89675 L158.46,60.30925 L158.46,60.30925 Z M156.9975,67.22675 L161.12125,67.22675 C161.32875,67.22675 161.61,67.218 161.96375,67.20425 C162.3175,67.18925 162.70375,67.1455 163.11625,67.07175 C163.53125,66.998 163.95125,66.87925 164.38,66.71675 C164.8075,66.55425 165.19375,66.318 165.5325,66.008 C165.8725,65.698 166.1525,65.3055 166.375,64.833 C166.5975,64.35925 166.7075,63.783 166.7075,63.103 C166.7075,62.3505 166.5775,61.72925 166.31875,61.24175 C166.06,60.753 165.735,60.358 165.345,60.0555 C164.95125,59.753 164.52,59.52675 164.0475,59.37925 C163.575,59.2305 163.1225,59.128 162.69625,59.06925 L167.26125,51.53175 L165.59875,51.53175 L161.1875,58.9805 L158.46,58.9805 L158.46,51.53175 L156.9975,51.53175 L156.9975,67.22675 L156.9975,67.22675 Z" id="path110" fill="#356632" transform="translate(162.129375, 59.379250) scale(1, -1) translate(-162.129375, -59.379250) "></path>
            <path d="M170.586375,59.379375 C170.586375,58.404375 170.742625,57.494375 171.052625,56.651875 C171.362625,55.810625 171.806375,55.078125 172.383875,54.456875 C172.958875,53.836875 173.657625,53.349375 174.477625,52.995625 C175.298875,52.639375 176.217625,52.463125 177.236375,52.463125 C178.257625,52.463125 179.177625,52.639375 179.997625,52.995625 C180.818875,53.349375 181.516375,53.836875 182.092625,54.456875 C182.668875,55.078125 183.112625,55.810625 183.423875,56.651875 C183.733875,57.494375 183.887625,58.404375 183.887625,59.379375 C183.887625,60.354375 183.733875,61.264375 183.423875,62.106875 C183.112625,62.948125 182.668875,63.679375 182.092625,64.301875 C181.516375,64.921875 180.818875,65.409375 179.997625,65.763125 C179.177625,66.119375 178.257625,66.295625 177.236375,66.295625 C176.217625,66.295625 175.298875,66.119375 174.477625,65.763125 C173.657625,65.409375 172.958875,64.921875 172.383875,64.301875 C171.806375,63.679375 171.362625,62.948125 171.052625,62.106875 C170.742625,61.264375 170.586375,60.354375 170.586375,59.379375 M169.123875,59.379375 C169.123875,60.575625 169.322625,61.676875 169.722625,62.683125 C170.121375,63.686875 170.675125,64.555625 171.385125,65.288125 C172.093875,66.019375 172.947625,66.591875 173.946375,67.005625 C174.942625,67.419375 176.040125,67.626875 177.236375,67.626875 C178.433875,67.626875 179.531375,67.419375 180.530125,67.005625 C181.526375,66.591875 182.381375,66.019375 183.090125,65.288125 C183.798875,64.555625 184.353875,63.686875 184.752625,62.683125 C185.151375,61.676875 185.352625,60.575625 185.352625,59.379375 C185.352625,58.181875 185.151375,57.076875 184.752625,56.065625 C184.353875,55.053125 183.798875,54.180625 183.090125,53.449375 C182.381375,52.716875 181.526375,52.148125 180.530125,51.743125 C179.531375,51.334375 178.433875,51.131875 177.236375,51.131875 C176.040125,51.131875 174.942625,51.334375 173.946375,51.743125 C172.947625,52.148125 172.093875,52.716875 171.385125,53.449375 C170.675125,54.180625 170.121375,55.053125 169.722625,56.065625 C169.322625,57.076875 169.123875,58.181875 169.123875,59.379375" id="path114" fill="#356632" transform="translate(177.238250, 59.379375) scale(1, -1) translate(-177.238250, -59.379375) "></path>
            <path d="M201.556875,53.992625 C200.803125,52.973875 199.930625,52.241375 198.940625,51.797625 C197.949375,51.355125 196.879375,51.132625 195.725625,51.132625 C194.529375,51.132625 193.431875,51.335125 192.434375,51.742625 C191.435625,52.147625 190.583125,52.716375 189.873125,53.448875 C189.164375,54.180125 188.610625,55.053875 188.210625,56.065125 C187.811875,57.077625 187.613125,58.182625 187.613125,59.380125 C187.613125,60.576375 187.811875,61.676375 188.210625,62.682625 C188.610625,63.687625 189.164375,64.555125 189.873125,65.287625 C190.583125,66.018875 191.435625,66.591375 192.434375,67.005125 C193.431875,67.418875 194.529375,67.626375 195.725625,67.626375 C196.790625,67.626375 197.783125,67.438875 198.708125,67.060125 C199.631875,66.683875 200.439375,66.051375 201.135625,65.165125 L199.938125,64.167625 C199.450625,64.906375 198.825625,65.446375 198.064375,65.786375 C197.304375,66.125125 196.524375,66.296375 195.725625,66.296375 C194.706875,66.296375 193.786875,66.118875 192.966875,65.763875 C192.146875,65.410125 191.448125,64.921375 190.871875,64.301375 C190.294375,63.680125 189.851875,62.948875 189.541875,62.106375 C189.231875,61.263875 189.075625,60.355125 189.075625,59.380125 C189.075625,58.403875 189.231875,57.495125 189.541875,56.652625 C189.851875,55.810125 190.294375,55.077625 190.871875,54.457625 C191.448125,53.837625 192.146875,53.348875 192.966875,52.995125 C193.786875,52.640125 194.706875,52.462625 195.725625,52.462625 C196.125625,52.462625 196.538125,52.510125 196.968125,52.607625 C197.395625,52.702625 197.813125,52.851375 198.220625,53.050125 C198.625625,53.248875 199.014375,53.500125 199.384375,53.803875 C199.754375,54.106375 200.078125,54.472625 200.359375,54.902625 L201.556875,53.992625 L201.556875,53.992625 Z" id="path118" fill="#356632" transform="translate(194.585000, 59.379500) scale(1, -1) translate(-194.585000, -59.379500) "></path>
            <path d="M209.736875,65.630625 L206.079375,57.029375 L213.284375,57.029375 L209.736875,65.630625 L209.736875,65.630625 Z M209.049375,67.226875 L210.556875,67.226875 L217.163125,51.531875 L215.523125,51.531875 L213.816875,55.699375 L205.503125,55.699375 L203.728125,51.531875 L202.200625,51.531875 L209.049375,67.226875 L209.049375,67.226875 Z" id="path122" fill="#356632" transform="translate(209.681875, 59.379375) scale(1, -1) translate(-209.681875, -59.379375) "></path>
            <path d="M219.8455,54.43575 C220.2305,53.77075 220.728,53.27575 221.34175,52.95075 C221.9555,52.62575 222.65425,52.46325 223.43675,52.46325 C223.92425,52.46325 224.383,52.53575 224.81175,52.68575 C225.23925,52.832 225.613,53.0395 225.9305,53.30575 C226.248,53.572 226.49925,53.892 226.6855,54.2695 C226.86925,54.64575 226.9605,55.07075 226.9605,55.5445 C226.9605,56.09075 226.848,56.54325 226.618,56.897 C226.38925,57.25075 226.08175,57.54325 225.69925,57.772 C225.313,58.002 224.8805,58.197 224.40175,58.3595 C223.92175,58.52325 223.4255,58.68325 222.9155,58.847 C222.4055,59.0095 221.9105,59.1945 221.43175,59.402 C220.9505,59.6095 220.518,59.87825 220.133,60.21075 C219.74925,60.5445 219.443,60.962 219.21425,61.46325 C218.9855,61.9645 218.8705,62.587 218.8705,63.3245 C218.8705,64.02075 219.00675,64.637 219.2805,65.177 C219.55425,65.7145 219.923,66.167 220.38925,66.52825 C220.8555,66.892 221.38925,67.1645 221.9955,67.34825 C222.60175,67.5345 223.238,67.627 223.90175,67.627 C224.75925,67.627 225.55425,67.47575 226.2855,67.172 C227.01675,66.86825 227.64925,66.362 228.18175,65.6545 L226.91675,64.7445 C226.548,65.26075 226.11675,65.6495 225.6205,65.90825 C225.1255,66.167 224.538,66.29575 223.858,66.29575 C223.38425,66.29575 222.9355,66.23325 222.5055,66.10825 C222.07675,65.98075 221.70425,65.79825 221.38675,65.5545 C221.06925,65.3095 220.813,65.002 220.62175,64.63325 C220.4305,64.26325 220.333,63.82825 220.333,63.3245 C220.333,62.54075 220.533,61.94075 220.93175,61.51825 C221.3305,61.09825 221.82925,60.7645 222.428,60.52075 C223.02675,60.27825 223.67675,60.06325 224.37925,59.87825 C225.0805,59.69325 225.73175,59.44575 226.3305,59.13575 C226.92925,58.82575 227.42675,58.39325 227.82675,57.8395 C228.2255,57.2845 228.4255,56.5195 228.4255,55.5445 C228.4255,54.8345 228.29175,54.20575 228.0255,53.6595 C227.75925,53.112 227.40175,52.65075 226.95175,52.2745 C226.49925,51.897 225.97925,51.61325 225.38925,51.42075 C224.79675,51.2295 224.183,51.132 223.548,51.132 C222.513,51.132 221.5605,51.31325 220.68925,51.67575 C219.8155,52.03825 219.0705,52.647 218.44925,53.50575 L219.8455,54.43575 L219.8455,54.43575 Z" id="path126" fill="#356632" transform="translate(223.437375, 59.379500) scale(1, -1) translate(-223.437375, -59.379500) "></path>
            <path d="M89.43775,27.8564372 C89.43775,27.9064372 89.3865,27.9064372 89.3865,28.0064372 C88.38775,29.4564372 87.3865,30.9551872 86.43775,32.4551872 C85.8365,33.3051872 85.53775,34.3051872 85.68775,35.3551872 C85.73775,36.1051872 86.0365,36.9051872 86.33775,37.6551872 C86.48775,37.9039372 86.58775,38.2039372 86.78775,38.4039372 C87.78775,39.2051872 88.83775,39.6039372 90.08775,39.2539372 C91.4865,38.9539372 92.58775,38.1551872 93.38525,37.0539372 C94.0365,36.2051872 94.53525,35.3551872 95.1365,34.5051872 C95.58525,33.7564372 96.13525,33.0551872 96.63525,32.4064372 L96.73525,32.4064372 L96.7865,32.4551872 C97.28525,32.9051872 97.43525,33.5051872 97.23525,34.1551872 C96.7865,35.8039372 96.18525,37.4551872 95.48525,39.0051872 C94.6865,40.7039372 93.4365,42.0026872 91.7365,42.9039372 C90.8865,43.3526872 89.9365,43.4539372 89.03775,43.3526872 C88.1365,43.2526872 87.33775,42.9539372 86.53775,42.6039372 C85.03775,41.9539372 83.78775,40.9039372 82.589,39.7551872 C82.08775,39.1539372 81.73775,38.5051872 81.689,37.7039372 C81.63775,36.9051872 81.63775,36.2051872 81.539,35.4051872 C81.539,34.2051872 81.63775,33.0551872 81.889,31.8551872 C82.48775,29.1564372 84.83775,27.4064372 87.2865,27.4064372 C88.0365,27.4064372 88.7865,27.5064372 89.43775,27.8564372 M89.6865,49.5514372 C90.9865,49.5514372 92.23525,49.4514372 93.48525,49.0526872 C94.93525,48.6026872 95.93525,47.6526872 96.53525,46.2026872 C96.73525,45.7526872 96.9865,45.3526872 97.38525,45.0039372 C98.8865,43.5539372 100.1365,41.9039372 101.034,40.0551872 C102.084,38.1039372 102.68525,36.0051872 103.034,33.8051872 C103.18525,32.6551872 103.18525,31.5051872 102.88525,30.5064372 C102.68525,29.9064372 102.434,29.3564372 102.23525,28.8564372 C101.984,28.3064372 101.78525,27.8064372 101.58525,27.2576872 C101.43525,26.9564372 101.48525,26.6564372 101.78525,26.4076872 C102.13525,26.0076872 102.53525,25.7064372 102.934,25.3576872 C104.23525,24.2076872 105.434,22.8576872 106.484,21.4076872 C107.134,20.5076872 107.33275,19.6076872 107.034,18.4576872 C106.934,18.0076872 106.734,17.5576872 106.634,17.1076872 C106.53525,16.9076872 106.43525,16.7589372 106.23525,16.7076872 C105.834,16.5589372 105.434,16.3589372 104.98525,16.2589372 C103.984,15.8576872 103.034,15.9076872 102.03525,16.3589372 C101.18525,16.7076872 100.38525,17.3089372 99.58525,17.9089372 L95.48525,21.2076872 C94.88525,21.7076872 94.2865,21.7076872 93.58525,21.5076872 C92.6365,21.1576872 91.63775,20.8576872 90.6865,20.5576872 C87.2865,19.7076872 83.989,20.2576872 80.88775,21.9564372 C80.03775,22.4576872 79.189,23.0064372 78.48775,23.6576872 C78.039,24.1076872 77.69025,24.5564372 77.289,25.1064372 C76.689,25.7564372 76.239,26.4564372 75.789,27.2051872 C75.19025,28.2551872 74.889,29.3564372 74.689,30.5551872 C74.489,32.2051872 74.389,33.7564372 74.489,35.4051872 C74.54025,37.0539372 74.789,38.6051872 75.239,40.2039372 C75.59025,41.3051872 76.189,42.2039372 76.989,43.0526872 C77.33775,43.5539372 77.839,43.9539372 78.189,44.4026872 C78.889,45.0539372 79.43775,45.6526872 80.139,46.3026872 C80.78775,46.9026872 81.489,47.4039372 82.33775,47.7526872 C83.63775,48.2526872 84.9865,48.8539372 86.43775,49.1526872 C87.4365,49.4514372 88.5865,49.6526872 89.6865,49.5514372" id="path130" fill="#356632" transform="translate(90.809799, 32.782344) scale(1, -1) translate(-90.809799, -32.782344) "></path>
            <path d="M131.184625,30.1180242 C131.334625,28.6680242 130.784625,27.1692742 130.184625,25.7692742 C129.384625,23.6192742 128.185875,21.6692742 126.784625,19.8205242 C126.185875,19.0192742 125.534625,18.1692742 124.835875,17.4205242 C123.185875,15.6692742 121.185875,14.5705242 118.885875,14.0705242 C115.335875,13.2205242 111.488375,14.5705242 109.288375,16.7705242 C108.038375,18.0205242 107.338375,19.4692742 106.837125,21.0705242 C106.488375,22.1692742 106.288375,23.3705242 106.088375,24.5192742 C105.988375,25.8192742 105.788375,27.1692742 105.638375,28.5680242 C105.538375,29.5692742 105.388375,30.5667742 105.338375,31.6167742 C105.238375,31.9680242 105.338375,32.4680242 105.388375,32.9180242 C105.438375,33.8167742 105.438375,34.7180242 105.588375,35.6167742 C105.638375,36.3667742 105.638375,37.0667742 105.839625,37.7167742 C106.039625,38.6667742 106.638375,39.4667742 107.288375,40.1667742 C107.288375,40.2667742 107.388375,40.3155242 107.388375,40.3667742 C107.838375,40.9667742 108.488375,41.2655242 109.237125,41.2167742 C110.988375,41.0655242 112.387125,40.4155242 113.337125,38.8167742 C113.637125,38.1667742 113.837125,37.4667742 113.837125,36.6667742 C113.987125,34.6667742 114.087125,32.5667742 114.237125,30.5667742 C114.285875,29.1180242 114.438375,27.7180242 114.538375,26.2192742 C114.638375,25.1180242 114.887125,24.0680242 115.187125,22.9692742 C115.287125,22.7692742 115.335875,22.5192742 115.387125,22.2692742 C115.587125,21.7192742 115.937125,21.6192742 116.385875,21.8680242 C117.587125,22.5192742 118.785875,23.2692742 119.537125,24.4680242 C120.535875,25.7692742 121.435875,27.1192742 122.135875,28.5680242 C122.485875,29.1180242 122.585875,29.7180242 122.685875,30.4180242 C122.935875,32.8180242 122.435875,35.1180242 121.385875,37.2667742 C120.785875,38.4667742 120.335875,39.7167742 119.887125,40.9667742 C119.687125,41.4167742 119.735875,41.8655242 119.835875,42.3667742 C119.935875,43.2167742 120.185875,44.0155242 120.637125,44.7155242 C120.937125,45.0655242 121.185875,45.3155242 121.585875,45.5155242 C121.685875,45.5642742 121.887125,45.5642742 122.035875,45.5642742 C122.485875,45.4642742 122.935875,45.3155242 123.385875,45.2655242 C124.234625,45.1155242 124.935875,44.7155242 125.534625,44.1655242 C127.035875,42.6667742 128.334625,41.0167742 129.234625,39.0655242 C130.084625,37.4667742 130.585875,35.7167742 130.934625,33.8167742 C131.134625,32.6180242 131.184625,31.4680242 131.184625,30.1180242" id="path134" fill="#356632" transform="translate(118.252593, 29.688887) scale(1, -1) translate(-118.252593, -29.688887) "></path>
            <path d="M134.738,26.7664751 C134.738,28.2652251 134.788,29.7152251 134.938,31.2664751 C135.038,32.4164751 135.088,33.6152251 135.138,34.7639751 C135.28675,35.9139751 135.28675,37.0639751 135.388,38.1139751 C135.488,39.3639751 135.688,40.5139751 135.888,41.7127251 C136.088,43.1139751 136.388,44.5627251 136.738,45.9627251 C137.038,47.2614751 137.78675,48.2627251 138.98675,48.8627251 C139.438,49.1127251 139.88675,49.2614751 140.438,49.4614751 C140.788,49.5614751 141.18675,49.5127251 141.53675,49.2614751 C142.58675,48.5627251 143.38675,47.6127251 143.7855,46.3127251 C144.03675,45.5127251 144.03675,44.7127251 143.8855,43.8127251 C143.7855,42.5639751 143.58675,41.3639751 143.43675,40.1139751 C143.23675,38.8639751 143.13675,37.7139751 142.93675,36.4639751 C142.83675,35.4652251 142.7355,34.4639751 142.58675,33.4652251 C142.48675,32.3652251 142.38675,31.2664751 142.23675,30.2164751 C142.13675,29.2664751 142.08675,28.3152251 142.038,27.3652251 C141.88675,26.2664751 141.78675,25.1664751 141.738,24.0664751 C141.58675,23.0664751 141.53675,22.0664751 141.48675,21.0664751 C141.43675,20.3677251 141.38675,19.7164751 141.23675,19.0677251 C141.18675,18.5677251 140.988,18.1164751 140.888,17.6677251 C140.688,16.8177251 140.28675,16.0677251 139.78675,15.3677251 C139.68675,15.2677251 139.538,15.0189751 139.438,14.8177251 C139.438,14.8177251 139.388,14.7677251 139.338,14.7677251 L138.038,14.6177251 C136.838,14.5677251 136.038,15.0677251 135.788,16.2689751 C135.63925,17.0177251 135.488,17.7177251 135.388,18.4677251 C135.238,19.3664751 135.138,20.2164751 135.038,21.1677251 C134.988,21.8664751 134.888,22.6164751 134.888,23.4164751 C134.788,24.5152251 134.738,25.6164751 134.738,26.7664751" id="path138" fill="#356632" transform="translate(139.363396, 32.062175) scale(1, -1) translate(-139.363396, -32.062175) "></path>
            <path d="M155.516875,22.2660523 C156.616875,23.4648023 157.566875,24.7660523 158.565625,26.0648023 C159.916875,27.7148023 161.166875,29.3648023 162.516875,31.0135523 C163.514375,32.3148023 164.664375,33.5135523 165.764375,34.6635523 C166.364375,35.3648023 167.114375,35.9635523 167.864375,36.4623023 C168.514375,36.8135523 169.264375,37.2123023 170.064375,37.2123023 C170.714375,37.2635523 171.314375,37.1135523 171.813125,36.7635523 C172.814375,36.1623023 173.114375,34.8635523 172.614375,33.7135523 C172.364375,33.0135523 172.113125,32.3148023 171.813125,31.5635523 C171.813125,31.5135523 171.864375,31.4635523 171.864375,31.4635523 C172.064375,31.3135523 172.314375,31.2135523 172.464375,30.9648023 C172.914375,30.7148023 173.263125,30.3135523 173.363125,29.8148023 L173.363125,29.6648023 C173.614375,28.9135523 173.913125,28.2148023 174.013125,27.4648023 L174.164375,25.8160523 C174.263125,24.5660523 174.363125,23.2160523 174.363125,21.9160523 C174.413125,21.2160523 174.363125,20.6660523 174.363125,20.0660523 C174.363125,19.4660523 174.363125,18.9160523 174.164375,18.4160523 C173.964375,17.6160523 173.714375,16.8673023 173.513125,16.0160523 C173.413125,15.7673023 173.313125,15.5173023 173.163125,15.2660523 C173.163125,15.1660523 173.063125,15.0660523 172.963125,15.0173023 C172.614375,14.9173023 172.364375,14.8173023 172.064375,14.7173023 C171.514375,14.4173023 170.963125,14.2173023 170.314375,14.2673023 C169.865625,14.3673023 169.314375,14.4673023 168.815625,14.6673023 C168.514375,14.7673023 168.314375,14.9660523 168.214375,15.2660523 C167.914375,15.7673023 167.765625,16.3160523 167.765625,16.9173023 C167.714375,17.6160523 167.665625,18.3673023 167.665625,19.0160523 C167.665625,20.3660523 167.614375,21.7173023 167.614375,23.0660523 C167.614375,23.7160523 167.514375,24.2660523 167.365625,24.9648023 C167.314375,25.2648023 167.214375,25.5648023 167.064375,25.8160523 C166.764375,25.5160523 166.415625,25.2148023 166.165625,24.8148023 C164.915625,23.3160523 163.815625,21.7660523 162.565625,20.3660523 C160.665625,18.0160523 158.515625,15.9160523 156.065625,14.1673023 C154.968125,13.3173023 153.766875,12.5673023 152.416875,12.1173023 C151.916875,11.9173023 151.418125,11.7685523 150.966875,11.7685523 C150.168125,11.7173023 149.518125,11.9685523 149.018125,12.6660523 C148.668125,12.9673023 148.468125,13.4673023 148.416875,13.9673023 C148.268125,14.7673023 148.168125,15.5673023 148.068125,16.3673023 C147.768125,17.9173023 147.519375,19.4173023 147.318125,20.9660523 L147.018125,23.5160523 C146.968125,24.4148023 146.968125,25.3648023 146.968125,26.2648023 C146.918125,27.2148023 146.868125,28.2648023 146.868125,29.2148023 C146.768125,30.2635523 146.768125,31.4135523 146.718125,32.4635523 C146.718125,33.1135523 146.668125,33.8135523 146.668125,34.4635523 C146.618125,35.4135523 146.518125,36.4623023 146.518125,37.4123023 C146.568125,38.2135523 146.618125,39.0123023 146.918125,39.7635523 L146.968125,40.1123023 C146.968125,40.4135523 146.918125,40.6623023 146.918125,40.8623023 C146.918125,41.4123023 147.118125,41.9123023 147.468125,42.2623023 C147.519375,42.3123023 147.568125,42.4123023 147.568125,42.5123023 L147.568125,43.3623023 C147.568125,43.7623023 147.618125,44.2123023 147.768125,44.5123023 C148.018125,44.9610523 148.168125,45.3123023 148.316875,45.7623023 C148.416875,45.8623023 148.516875,45.8623023 148.668125,45.8623023 C149.018125,45.8110523 149.218125,45.5623023 149.366875,45.2110523 C150.018125,43.8623023 150.516875,42.5123023 150.768125,41.1123023 C151.116875,39.5635523 151.366875,38.0135523 151.718125,36.5135523 L152.468125,32.5135523 C152.768125,31.2135523 152.916875,29.8148023 153.216875,28.4148023 L153.966875,23.4648023 C154.066875,22.7660523 154.266875,22.1660523 154.466875,21.4648023 C154.866875,21.7173023 155.216875,21.9660523 155.516875,22.2660523" id="path142" fill="#356632" transform="translate(160.451736, 28.812214) scale(1, -1) translate(-160.451736, -28.812214) "></path>
            <path d="M184.68675,36.0159249 C184.33675,35.9671749 184.0355,35.9671749 183.73675,35.9671749 C182.98675,35.8159249 182.18675,35.7671749 181.43675,35.7171749 C180.83675,35.6171749 180.2355,35.5171749 179.68675,35.6171749 C178.53675,35.6171749 177.48675,35.9159249 176.43675,36.3159249 C175.988,36.4659249 175.488,36.7171749 175.038,36.9659249 C173.93675,37.4659249 173.488,38.7159249 173.888,39.8159249 C174.288,41.0659249 175.138,41.7659249 176.38675,42.1659249 C176.788,42.3659249 177.28675,42.4146749 177.73675,42.3659249 C179.28675,42.3659249 180.78675,42.6659249 182.2355,43.0159249 L185.2355,43.7646749 C185.8855,43.8646749 186.5355,43.9146749 187.1855,44.0646749 C188.1855,44.2159249 189.1355,44.4659249 190.08425,44.6146749 C191.1855,44.9146749 192.2355,45.1646749 193.33425,45.3646749 C194.48425,45.4646749 195.58425,45.6159249 196.68425,45.7646749 C197.73425,45.8646749 198.883,45.9159249 199.983,45.9646749 C200.883,46.0646749 201.733,45.9646749 202.633,45.9159249 C203.033,45.8646749 203.383,45.8159249 203.783,45.7159249 C204.98175,45.2146749 205.433,44.1146749 205.033,42.9159249 C204.68175,41.9159249 203.98425,41.2159249 202.983,40.8659249 C201.43175,40.2146749 199.933,39.8159249 198.33425,39.4171749 L194.0355,38.3671749 C193.53425,38.2671749 193.13425,38.0671749 192.63425,37.9671749 C192.18425,37.7659249 191.98425,37.4659249 192.1355,37.0659249 C192.3355,35.9159249 192.53425,34.7171749 192.58425,33.5671749 C192.63425,32.4171749 193.53425,23.0184249 193.63425,21.9196749 C193.63425,21.1696749 193.88425,20.4684249 194.0355,19.7696749 C194.18425,19.1184249 194.3355,18.4196749 194.38425,17.7196749 C194.53425,17.0709249 194.38425,16.4196749 194.1355,15.7696749 C193.68425,14.9196749 192.9855,14.5196749 192.0355,14.5196749 C190.83425,14.5196749 189.78425,15.0196749 188.93425,15.8209249 C187.7855,16.9196749 187.0855,18.2209249 186.78675,19.7696749 C186.5355,20.8196749 185.53675,30.2171749 185.38675,31.2671749 C185.1355,32.8171749 184.8855,34.4171749 184.68675,36.0159249" id="path146" fill="#356632" transform="translate(189.459641, 30.263587) scale(1, -1) translate(-189.459641, -30.263587) "></path>
            <path d="M215.485125,37.5008232 C215.336375,37.2495732 215.185125,37.1008232 215.136375,36.8495732 C214.685125,35.0495732 214.235125,33.2020732 213.836375,31.3008232 C213.786375,31.0508232 213.736375,30.7508232 213.736375,30.4508232 C213.736375,30.2008232 213.836375,30.1008232 214.186375,30.0008232 L214.485125,30.0008232 C215.136375,30.1520732 215.685125,30.2008232 216.286375,30.3508232 C216.735125,30.4008232 217.235125,30.4508232 217.585125,30.8020732 C217.685125,30.8508232 217.685125,30.8508232 217.685125,31.0020732 C217.585125,31.1508232 217.485125,31.3008232 217.436375,31.6008232 C217.085125,32.7008232 216.785125,33.9508232 216.486375,35.1008232 C216.235125,35.9508232 215.935125,36.6995732 215.535125,37.5008232 L215.485125,37.5008232 L215.485125,37.5008232 Z M214.685125,44.7983232 C214.685125,44.8983232 214.785125,44.9495732 214.785125,45.0495732 C214.886375,45.4483232 215.185125,45.8483232 215.585125,45.9995732 C216.286375,46.2983232 216.985125,46.4483232 217.735125,46.3483232 C218.485125,46.3483232 219.135125,46.0995732 219.735125,45.6483232 C220.785125,44.7983232 221.685125,43.6995732 222.285125,42.3995732 C222.786375,41.3483232 223.083875,40.2495732 223.435125,39.1995732 C224.085125,37.2495732 224.685125,35.2008232 225.335125,33.2020732 C225.335125,33.0008232 225.383875,32.8008232 225.435125,32.7008232 C225.635125,32.3008232 225.883875,32.1008232 226.285125,32.1008232 C226.885125,32.0520732 227.483875,32.0520732 228.135125,32.0520732 L229.733875,32.0520732 C230.732625,32.0520732 231.285125,31.6508232 231.582625,30.7020732 C231.982625,29.6020732 231.682625,28.6020732 230.832625,27.7520732 C230.383875,27.3520732 229.782625,27.1020732 229.285125,26.8508232 L227.935125,26.2520732 C227.883875,26.2020732 227.835125,26.2020732 227.835125,26.1020732 C227.333875,25.9020732 227.185125,25.6008232 227.282625,25.1020732 C227.333875,24.7033232 227.333875,24.2520732 227.383875,23.8520732 C227.535125,22.9020732 227.735125,22.0033232 227.835125,21.1020732 C227.883875,20.7033232 227.983875,20.3033232 228.035125,19.9033232 C228.183875,19.2020732 228.135125,18.5033232 227.935125,17.7533232 C227.783875,17.0545732 227.583875,16.3533232 227.383875,15.6533232 C227.333875,15.5533232 227.333875,15.5033232 227.333875,15.5033232 C226.685125,15.0545732 226.083875,14.6545732 225.435125,14.2533232 C225.183875,14.0533232 224.785125,13.9533232 224.433875,13.8533232 C223.836375,13.7533232 223.283875,13.9533232 222.786375,14.0045732 C222.133875,14.2033232 221.785125,14.6045732 221.535125,15.1545732 C221.435125,15.5033232 221.335125,15.7533232 221.285125,16.0045732 C220.785125,18.3045732 220.235125,20.5520732 219.735125,22.8020732 C219.735125,23.0020732 219.635125,23.1020732 219.583875,23.3020732 C219.435125,23.5533232 219.283875,23.6533232 218.985125,23.6533232 C218.585125,23.6020732 218.135125,23.5533232 217.735125,23.4533232 C216.635125,23.1020732 215.485125,22.8520732 214.386375,22.5033232 C213.935125,22.4033232 213.585125,22.2033232 213.185125,22.0533232 C212.636375,21.8020732 212.286375,21.4020732 212.186375,20.8533232 C212.035125,19.4533232 211.786375,18.1033232 211.586375,16.7533232 C211.436375,16.1045732 211.386375,15.5033232 211.237625,14.8545732 C211.186375,14.4033232 210.985125,13.9533232 210.536375,13.7533232 C209.886375,13.4545732 209.236375,13.2033232 208.586375,13.3045732 C207.086375,13.4045732 205.887625,14.0533232 205.287625,15.5033232 C204.937625,16.1045732 204.786375,16.8533232 204.686375,17.6033232 C204.537625,19.0533232 204.637625,20.5033232 204.886375,21.9020732 C205.087625,23.5533232 205.287625,25.1520732 205.587625,26.7508232 C205.836375,28.6508232 206.187625,30.5508232 206.537625,32.4508232 C206.737625,33.7508232 207.086375,35.1008232 207.336375,36.4508232 C207.636375,37.6495732 208.036375,38.7995732 208.536375,39.8995732 C208.636375,40.2495732 208.737625,40.6508232 208.786375,40.9495732 C209.136375,42.2495732 209.886375,43.2495732 210.885125,44.0983232 C211.136375,44.2983232 211.386375,44.4995732 211.636375,44.7495732 C212.235125,45.1483232 212.885125,45.2483232 213.585125,45.0495732 C213.986375,44.9495732 214.335125,44.8983232 214.685125,44.7983232 L214.685125,44.7983232 Z" id="path150" fill="#356632" transform="translate(218.187219, 29.830474) scale(1, -1) translate(-218.187219, -29.830474) "></path>
            <path d="M242.73725,22.6041643 C243.086,22.6041643 243.436,22.7041643 243.736,22.7541643 C245.88725,23.1529143 247.886,23.8541643 249.93475,24.4541643 C251.5335,25.0041643 253.0835,25.4529143 254.73475,25.8541643 C255.98475,26.1541643 257.23475,26.3541643 258.48475,26.5541643 C258.88475,26.6029143 259.38225,26.7529143 259.83475,26.7529143 C260.88475,26.7529143 261.6335,26.1541643 261.8335,25.1041643 C261.8335,25.0041643 261.8335,24.8541643 261.7335,24.8041643 C261.4335,24.5554143 261.4335,24.4541643 261.7335,24.2541643 C261.98225,23.9041643 261.98225,23.5541643 261.8335,23.2041643 C261.68225,22.5541643 261.28225,22.0554143 260.8335,21.5041643 C259.93475,20.6541643 258.88475,19.9554143 257.73475,19.3541643 C254.6835,17.9041643 251.436,16.5554143 248.23475,15.4554143 C246.436,14.8066643 244.686,14.3554143 242.786,14.0554143 C240.88725,13.8566643 239.08725,14.4054143 237.4885,15.5054143 C237.13725,15.8054143 236.636,16.1054143 236.28725,16.5054143 C235.686,17.0554143 235.43725,17.7554143 235.33725,18.6054143 C235.0885,19.9041643 234.93725,21.1541643 234.7885,22.4554143 C234.63725,23.9541643 234.58725,25.5041643 234.63725,27.0041643 C234.6885,28.9029143 234.7885,30.7541643 234.83725,32.6016643 C234.9885,34.1516643 235.33725,35.7529143 235.53725,37.4016643 C235.586,37.8516643 235.73725,38.4029143 235.83725,38.9016643 L235.83725,39.7016643 C235.83725,40.3504143 236.08725,40.9516643 236.38725,41.5004143 C236.5385,41.8504143 236.68725,42.1016643 236.836,42.3016643 C237.13725,42.7504143 237.3885,42.9504143 237.786,43.1516643 C238.78725,43.4004143 239.786,43.3516643 240.63725,42.8504143 C242.486,41.9516643 243.58725,40.4016643 243.88725,38.4516643 C244.08475,37.4516643 243.88725,36.4516643 243.78725,35.5516643 C243.48725,33.9029143 243.186,32.3529143 242.986,30.7541643 C242.83725,29.7529143 242.73725,28.7541643 242.73725,27.7041643 C242.63725,26.0041643 242.73725,24.3541643 242.73725,22.6041643" id="path154" fill="#356632" transform="translate(248.276733, 28.656582) scale(1, -1) translate(-248.276733, -28.656582) "></path>
        </g>
    </g>
</svg>