<?xml version="1.0" encoding="utf-8"?>
<!-- Generator: Adobe Illustrator 16.0.4, SVG Export Plug-In . SVG Version: 6.00 Build 0)  -->
<!DOCTYPE svg PUBLIC "-//W3C//DTD SVG 1.1//EN" "http://www.w3.org/Graphics/SVG/1.1/DTD/svg11.dtd">
<svg version="1.1"
	 id="svg153" xmlns:dc="http://purl.org/dc/elements/1.1/" xmlns:cc="http://creativecommons.org/ns#" xmlns:rdf="http://www.w3.org/1999/02/22-rdf-syntax-ns#"
	 xmlns="http://www.w3.org/2000/svg" xmlns:xlink="http://www.w3.org/1999/xlink" x="0px" y="0px" width="1794.491px"
	 height="803.199px" viewBox="19.663 0 1794.491 803.199" enable-background="new 19.663 0 1794.491 803.199" xml:space="preserve">
<g>
	<g>
		<g>
			<path fill="#404041" d="M670.053,508.768l-13.495,1.982l-42.207-9.525c-10.939-16.672-16.408-24.566-16.408-23.684
				c0,0.881-1.189-35.504-3.572-109.159l25.008-29.771l24.477-6.35l35.197,1.72l34.664,26.198l5.557,110.481l-21.303,28.447
				l13.1,21.568l-1.322,11.115l-13.099,14.553l-11.909-1.984L670.053,508.768z M682.624,465.102l-4.102-94.072l-11.644-9.925
				l-23.552-0.396l-17.862,16.406l5.16,86.137l17.861,11.641l18.393,7.014L682.624,465.102z"/>
		</g>
		<g>
			<path fill="#404041" d="M738.063,339.407l51.47,1.72l2.381,25.669l-14.422,0.529l2.514,99.763l13.496,14.289l23.42,3.84
				l12.041-8.074l3.969-112.862l-9.527-0.396l4.498-24.478l48.955,0.396l3.441,24.082l-11.908-0.398l-4.498,120.008
				c-11.998,12.439-18.35,19.188-19.055,20.244c-0.617,1.146-13.758,3.705-39.428,7.674l-31.359-5.953
				c-18.348-16.32-27.874-24.348-28.579-24.082c-0.618,0.264-0.618-8.336,0-25.801l1.059-89.178
				c-7.322,1.41-10.982,1.721-10.982,0.927c0-0.88,0.662-9.483,1.985-25.802L738.063,339.407z"/>
		</g>
		<g>
			<path fill="#404041" d="M942.356,487.334l11.904-1.723l-5.688,21.037l-56.232,0.135c-0.709-8.822-1.412-15.172-2.117-19.057
				c-0.443-2.467,1.367-3.217,5.426-2.248c2.027,0.443,4.1,1.15,6.217,2.119l3.438-128.346l-20.506,0.134l-0.264-24.081
				l51.205-0.131L942.356,487.334z"/>
		</g>
		<g>
			<path fill="#404041" d="M962.994,335.435l46.705-0.924l50.545,132.973l-6.217-132.445l46.705,0.794l-4.367,26.858l-9.924,0.398
				l1.455,121.99c5.645-0.262,8.82,0.314,9.527,1.725c0.617,1.5,0.266,9.258-1.059,23.285l-46.707-1.721l-46.176-128.211
				l2.381,126.491l-40.486,1.721l-1.852-25.537h12.303l-0.396-120.14h-13.361L962.994,335.435z"/>
		</g>
		<g>
			<path fill="#404041" d="M1239.131,336.628l5.957,37.971l-24.084,0.529l-1.057-14.949l-25.271,1.72l2.775,127.681
				c6.703,0.266,10.631,0.135,11.779-0.395c1.057-0.617,2.117,5.205,3.176,17.463l-5.957,1.326
				c-38.898-0.355-59.406-0.531-61.523-0.531c-2.115,0-2.471-5.381-1.059-16.143l12.834-3.043l-3.176-128.477l-17.199-0.925
				l-1.59,16.272c-14.643-2.115-22.49-3.175-23.551-3.175c-1.059,0-0.527-11.774,1.586-35.325H1239.131z"/>
		</g>
		<g>
			<path fill="#404041" d="M1409.949,490.902l-4.764,18.395l-45.914,0.264l-5.027-19.318l11.379-2.645l-11.512-22.76l-49.748-2.115
				l-9.525,28.316l11.113-1.723l-5.426,20.641l-52.926,0.264c-0.705-8.732-1.365-14.994-1.982-18.789
				c-0.441-2.379,1.236-3.084,5.027-2.115c1.938,0.443,3.922,1.104,5.953,1.984l49.354-137.472l-19.318,0.131l-0.266-23.552
				l62.453-0.264h10.055l37.709,155.602L1409.949,490.902z M1351.334,436.125l-16.805-63.112l-21.301,63.379L1351.334,436.125z"/>
		</g>
		<g>
			<path fill="#404041" d="M1516.856,507.574l-62.449-1.852v0.266l-48.824,0.529l-0.133-23.949l19.582-0.264l-5.557-128.476
				c-1.941,1.06-3.883,1.81-5.82,2.247c-3.883,1.061-5.646,0.354-5.291-2.116c0.613-3.881,1.23-10.274,1.85-19.185l53.453-0.661
				l5.689,21.037l-11.246-1.589l-3.174,130.198l40.488-0.396l7.674-14.82l17.068,3.838L1516.856,507.574z"/>
		</g>
		<g>
			<path fill="#404041" d="M690.828,736.732l-38.239-11.645l-2.118,8.469l-57.158,0.135c-0.707-9.35-1.411-16.055-2.116-20.113
				c-0.442-2.557,1.409-3.352,5.558-2.381c2.026,0.529,4.102,1.279,6.219,2.248l3.439-135.357l-20.773,0.266l-0.266-25.402
				l110.482,2.777l27.785,24.873l1.191,126.891L690.828,736.732z M692.017,600.848l-14.951-19.979l-38.369,4.629l4.895,112.201
				l42.736,7.809L692.017,600.848z"/>
		</g>
		<g>
			<path fill="#404041" d="M756.586,729.455l1.588-1.191h-14.95c-0.708-9.17-1.413-15.744-2.117-19.711
				c-0.443-2.469,1.409-3.221,5.557-2.254c2.026,0.445,4.102,1.193,6.218,2.254l3.441-132.051l-20.774,0.133l-0.264-24.742
				l39.165-0.133h12.832l65.498,2.25l1.189,35.723l-19.582,0.928l-9.527-10.982l-36.252,1.455l1.719,41.414l23.023,0.529
				l2.514-8.334l15.348,1.98l1.189,30.963l-19.58,2.252l-3.441-8.205l-17.994,4.496l2.646,59.676l39.826,0.926l5.027-10.98
				c13.582-0.531,20.109-0.135,19.582,1.191c-0.617,1.41,0.043,12.879,1.984,34.398L756.586,729.455z"/>
		</g>
		<g>
			<path fill="#404041" d="M1070.024,559.301l5.953,37.973l-24.082,0.531l-1.059-14.951l-25.27,1.721l2.775,127.682
				c6.705,0.264,10.631,0.133,11.775-0.398c1.061-0.615,2.119,5.207,3.178,17.465l-5.953,1.326
				c-38.902-0.355-59.41-0.531-61.527-0.531s-2.471-5.379-1.059-16.143l12.834-3.041l-3.176-128.479l-17.199-0.926l-1.586,16.275
				c-14.645-2.117-22.496-3.176-23.555-3.176s-0.529-11.775,1.588-35.328H1070.024z"/>
		</g>
		<g>
			<path fill="#404041" d="M1083.781,734.881l2.115-23.154l14.689-3.705l1.057-50.016l24.875-14.289
				c-2.908-1.145-5.027-1.939-6.352-2.381h0.135l-12.176-5.955l-2.645-52.264l28.051-21.303l53.85-4.895l2.25,0.793l48.295,0.133
				l4.5,28.711l-21.566-0.133l3.703,127.021c2.205-0.969,4.367-1.674,6.484-2.115c4.232-0.971,6.131-0.221,5.686,2.248
				c-0.705,3.795-1.453,10.102-2.246,18.922l-58.484-0.133c-0.527-11.381-0.793-18.611-0.793-21.701h6.219
				c1.059,0,1.898-0.307,2.516-0.924c0.525-0.619,0.707-1.324,0.525-2.119c-0.791-3.793-1.143-7.584-1.055-11.377
				c0-0.531-0.176-1.016-0.529-1.455l1.852-41.018l-14.025-0.396l-15.217,1.189c-0.088-0.086-0.266-0.176-0.529-0.264
				c-0.266-0.088-0.441-0.176-0.529-0.266l-11.643,11.379l-3.178,30.564l1.061,37.973L1083.781,734.881z M1179.311,633.793
				l6.219,1.984l2.648-54.248l-27.393-0.793l-16.141,12.041l13.627,42.867L1179.311,633.793z"/>
		</g>
		<g>
			<path fill="#404041" d="M1375.135,696.51l-24.74,35.062l-35.197,5.689l-40.355-9.658c-10.41-16.938-15.615-24.963-15.615-24.082
				c0,0.883-1.145-36.119-3.438-111.01l23.814-30.299l23.42-6.617l33.607,1.721l33.213,26.859L1375.135,696.51z M1343.645,690.689
				l-4.498-95.664l-12.967-10.055l-25.801-0.396l-19.584,16.67l5.559,87.723l19.715,11.908l20.111,7.014L1343.645,690.689z"/>
		</g>
		<g>
			<path fill="#404041" d="M1399.348,554.139l13.098,9.793l22.625-18.789l44.459,7.809l26.992,24.742l-1.191,125.037l-34.002,28.316
				l-64.703-6.354l-19.848-51.734l27.258-11.645l18.125,42.471l31.227,0.268l7.676-106.91l-10.455-23.686l-32.814,0.93
				l-13.893,18.654l-26.99-19.449L1399.348,554.139z"/>
		</g>
		<g>
			<path fill="#404041" d="M1685.014,713.578l-4.766,18.391l-45.912,0.266l-5.027-19.318l11.377-2.645l-11.508-22.76l-49.752-2.115
				l-9.525,28.314l11.113-1.721l-5.424,20.641l-52.926,0.266c-0.705-8.732-1.369-14.994-1.984-18.791
				c-0.441-2.379,1.234-3.084,5.027-2.115c1.939,0.443,3.924,1.105,5.955,1.984l49.352-137.473l-19.318,0.133l-0.264-23.553
				l62.453-0.266h10.055l37.709,155.602L1685.014,713.578z M1626.399,658.801l-16.805-63.113l-21.303,63.377L1626.399,658.801z"/>
		</g>
		<path fill="#404041" d="M1810.344,605.361l-7.01,17.859l-51.596,36.115l-17.064,11.51l-10.586,19.051l14.553,17.064l24.609-6.215
			l7.01-24.475c28.4,3.617,42.908,5.82,43.525,6.615c0.705,0.883,0.396,4.496-0.928,10.846l-11.506,4.5l-7.012,21.961
			c-20.461,6.35-31.355,9.525-32.678,9.525s-18.525-1.633-51.596-4.896l-23.02-41.141l8.465-28.18l68.135-46.834l6.613-15.346
			l-14.551-10.717l-20.639-2.91l-16.934,31.885c-21.078-6.881-32.281-10.453-33.602-10.717c-1.326-0.264,0.482-6.219,5.422-17.861
			l10.586,0.398l14.549-18.652l25.535-7.012l32.543,0.396c22.408,15.787,34.135,23.68,35.191,23.68L1810.344,605.361z"/>
	</g>
	<g>
		<path fill="#FFFFFF" d="M506.06,372.095c-0.008-0.053-0.021-0.105-0.031-0.158c-0.042-0.241-0.102-0.476-0.179-0.705
			c-0.019-0.059-0.036-0.117-0.058-0.175c-0.098-0.261-0.215-0.511-0.354-0.751c-0.031-0.055-0.066-0.105-0.101-0.158
			c-0.126-0.199-0.265-0.39-0.418-0.57c-0.042-0.05-0.079-0.102-0.124-0.148c-0.187-0.205-0.393-0.392-0.613-0.563
			c-0.057-0.044-0.117-0.085-0.176-0.126c-0.08-0.058-0.156-0.12-0.24-0.173c-0.148-0.093-0.303-0.171-0.458-0.247
			c-0.021-0.011-0.038-0.025-0.06-0.036l-84.512-39.898l8.506-33.537l-1.941-0.493l0.249-0.983c0.046-0.183,0.056-0.364,0.081-0.546
			c0.029-0.016,0.059-0.032,0.088-0.048c5.65-1.286,10.398-5.604,11.92-11.605l2.433-9.594l-0.384-0.097
			c3.527-0.777,6.992-2.113,10.264-4.062c10.674-6.354,16.678-17.547,16.898-29.115c1.457-9.463-0.395-19.055-5.355-27.389
			c-0.68-1.14-1.783-1.963-3.068-2.289c-1.285-0.327-2.647-0.129-3.787,0.551l-16.574,9.873c-2.372,1.413-3.15,4.481-1.738,6.854
			c1.65,2.771,2.122,6.02,1.33,9.145c-0.793,3.126-2.756,5.756-5.529,7.407c-1.869,1.112-3.998,1.701-6.156,1.701
			c-4.024,0-7.66-1.943-9.916-5.209c-0.465-5.97,2.381-11.969,7.872-15.238l-2.331-3.917c0.197-0.363,0.367-0.742,0.471-1.15
			c0.326-1.285,0.128-2.647-0.551-3.787l-9.869-16.58c-0.679-1.14-1.782-1.963-3.068-2.289c-1.285-0.326-2.647-0.129-3.787,0.551
			c-19.598,11.67-26.05,37.108-14.381,56.706c1.652,2.776,3.627,5.302,5.838,7.576l-1.902,7.501
			c-1.562,6.162-0.311,12.389,2.942,17.318c-0.064,0.172-0.142,0.338-0.188,0.518l-7.251,28.592l-87.599-41.357
			c14.412-1.654,27.248-3.973,37.155-6.069c10.14-2.146,18.367-4.293,23.484-5.716c2.909-0.809,5.15-1.477,6.518-1.895
			c2.845-0.869,5.786-1.768,5.786-5.487v-88.336c0-59.138-46.787-107.548-105.289-110.173V44.906h16.194c2.762,0,5-2.238,5-5
			s-2.238-5-5-5h-16.194V28.53c5.654-2.053,9.712-7.464,9.712-13.818C279.619,6.6,273.019,0,264.907,0s-14.712,6.6-14.712,14.711
			c0,6.354,4.058,11.766,9.712,13.818v6.376h-16.199c-2.761,0-5,2.238-5,5s2.239,5,5,5h16.199v10.809
			c-58.504,2.623-105.294,51.033-105.294,110.173v88.336c0,2.158,1.385,4.072,3.434,4.748c1.532,0.505,28.996,9.444,65.831,14.017
			l-84.4,39.846l-6.766-26.678c-0.046-0.18-0.123-0.346-0.188-0.518c3.253-4.929,4.505-11.156,2.942-17.317l-1.902-7.502
			c2.211-2.274,4.186-4.8,5.838-7.576c11.669-19.598,5.217-45.036-14.381-56.706c-1.14-0.678-2.504-0.874-3.787-0.551
			c-1.286,0.326-2.39,1.149-3.068,2.289l-9.869,16.58c-0.679,1.14-0.877,2.502-0.551,3.787s1.149,2.389,2.289,3.066
			c2.77,1.649,4.732,4.279,5.525,7.405s0.32,6.373-1.33,9.145c-2.198,3.693-6.081,5.898-10.387,5.898c0,0-0.001,0-0.002,0
			c-2.158,0-4.287-0.589-6.158-1.703c-2.574-1.532-4.438-3.916-5.326-6.751c0.148-2.514,0.872-5.031,2.249-7.344l-1.813-1.08
			c0.204-0.468,0.428-0.93,0.693-1.375c1.412-2.372,0.634-5.44-1.738-6.854l-16.574-9.873c-1.139-0.679-2.502-0.875-3.787-0.551
			c-1.285,0.326-2.389,1.149-3.068,2.289c-5.652,9.495-7.271,20.623-4.557,31.334c2.716,10.713,9.44,19.725,18.936,25.375
			c2.766,1.647,5.707,2.938,8.746,3.896l1.898,7.483c1.426,5.625,4.958,10.359,9.946,13.329c0.294,0.175,0.594,0.332,0.894,0.492
			c0.025,0.182,0.035,0.363,0.081,0.546l8.173,32.229l-90.41,42.684c-0.021,0.011-0.039,0.025-0.06,0.036
			c-0.155,0.076-0.31,0.154-0.458,0.247c-0.086,0.054-0.162,0.116-0.242,0.174c-0.059,0.041-0.116,0.081-0.172,0.124
			c-0.223,0.172-0.43,0.36-0.617,0.564c-0.043,0.047-0.08,0.098-0.121,0.146c-0.154,0.182-0.293,0.373-0.42,0.573
			c-0.033,0.053-0.068,0.103-0.1,0.157c-0.139,0.239-0.256,0.49-0.354,0.751c-0.021,0.058-0.039,0.116-0.058,0.175
			c-0.077,0.229-0.137,0.464-0.179,0.705c-0.01,0.053-0.023,0.105-0.031,0.158c-0.033,0.234-0.055,0.471-0.055,0.71v309.498
			c0,1.914,1.093,3.66,2.814,4.498l238.479,115.896c0.03,0.014,0.062,0.023,0.094,0.039c0.066,0.029,0.135,0.057,0.203,0.084
			c0.133,0.055,0.268,0.104,0.404,0.146c0.074,0.023,0.148,0.045,0.223,0.064c0.143,0.037,0.286,0.066,0.431,0.092
			c0.065,0.01,0.132,0.023,0.198,0.033c0.211,0.027,0.422,0.043,0.633,0.043l0,0c0.211,0,0.422-0.016,0.633-0.043
			c0.066-0.01,0.133-0.023,0.199-0.035c0.144-0.023,0.287-0.053,0.43-0.09c0.074-0.02,0.148-0.041,0.224-0.064
			c0.136-0.043,0.27-0.092,0.401-0.146c0.07-0.027,0.139-0.055,0.207-0.086c0.03-0.014,0.062-0.023,0.092-0.037l238.477-115.896
			c1.722-0.838,2.814-2.584,2.814-4.498V372.805C506.115,372.566,506.094,372.33,506.06,372.095z"/>
		<g>
			<g>
				<path fill="#906600" d="M409.081,334.884l89.899,42.442c0.689,0.325,1.416,0.479,2.131,0.479c1.875,0,3.672-1.059,4.525-2.866
					c1.179-2.497,0.11-5.478-2.387-6.656l-90.4-42.679L409.081,334.884z"/>
				<path fill="#906600" d="M390.014,325.882l-129.511-61.144c-2.497-1.179-3.565-4.159-2.387-6.656
					c1.18-2.498,4.158-3.564,6.656-2.387l129.793,61.277L390.014,325.882z"/>
			</g>
			<g>
				<path fill="#536723" d="M24.164,377.806c-1.875,0-3.672-1.059-4.525-2.866c-1.179-2.497-0.11-5.478,2.387-6.656l238.479-112.588
					c2.499-1.175,5.479-0.11,6.656,2.387c1.179,2.497,0.11,5.478-2.387,6.656L26.295,377.327
					C25.605,377.652,24.879,377.806,24.164,377.806z"/>
			</g>
			<g>
				<g>
					<g>
						<path fill="#FFDD00" d="M110.869,361.327l5.859,23.11c3.858,15.212,19.318,24.418,34.529,20.561
							c15.211-3.859,24.416-19.319,20.558-34.532l-5.858-23.108l0,0c0,0-14.107-0.992-28.635,2.691
							C122.797,353.734,110.869,361.327,110.869,361.327z"/>
					</g>
					<g>
						<path fill="#FFDD00" d="M100.74,270.579l2.432,9.594c2.162,8.523,10.828,13.684,19.354,11.522
							c8.523-2.164,13.683-10.829,11.521-19.354l-2.434-9.593"/>
					</g>
					<g>
						
							<rect x="99.752" y="311.606" transform="matrix(-0.2458 -0.9693 0.9693 -0.2458 -149.1269 525.6038)" fill="#ABE0F9" width="60.316" height="18.419"/>
					</g>
					<g>
						<path fill="#ABE0F9" d="M126.28,206.926c16.429,9.782,21.815,31.03,12.036,47.457c-9.78,16.426-31.032,21.816-47.456,12.036
							c-16.431-9.78-21.813-31.03-12.032-47.46l15.778,9.399c-4.591,7.711-2.063,17.688,5.651,22.279
							c7.708,4.592,17.686,2.061,22.276-5.65c4.593-7.713,2.062-17.688-5.649-22.278L126.28,206.926z"/>
					</g>
				</g>
				<g>
					<g>
						
							<rect x="370.89" y="313.614" transform="matrix(0.2458 -0.9693 0.9693 0.2458 -3.2204 641.5083)" fill="#ABE0F9" width="79.516" height="18.419"/>
					</g>
					<g>
						<path fill="#FFDD00" d="M429.944,362.327l-5.858,23.11c-3.859,15.212-19.319,24.418-34.53,20.561
							c-15.211-3.859-24.416-19.319-20.558-34.532l5.859-23.108l0,0c0,0,14.105-0.992,28.633,2.691
							C418.017,354.734,429.944,362.327,429.944,362.327z"/>
					</g>
					<g>
						<path fill="#FFDD00" d="M440.073,271.579l-2.433,9.594c-2.16,8.523-10.827,13.684-19.352,11.522
							c-8.524-2.164-13.684-10.829-11.521-19.354l2.433-9.593"/>
					</g>
					<g>
						<path fill="#ABE0F9" d="M414.533,207.926c-16.429,9.782-21.816,31.03-12.036,47.457c9.78,16.426,31.032,21.816,47.456,12.036
							c16.431-9.78,21.813-31.03,12.032-47.46l-15.778,9.399c4.591,7.711,2.063,17.688-5.652,22.279
							c-7.707,4.592-17.685,2.061-22.275-5.65c-4.592-7.713-2.062-17.688,5.649-22.278L414.533,207.926z"/>
					</g>
				</g>
				<g>
					<g>
						<path fill="#28598F" d="M124.685,358.559c-0.893,0-1.777-0.239-2.559-0.704c-1.139-0.678-1.962-1.781-2.288-3.066
							l-15.576-61.417c-0.679-2.677,0.94-5.397,3.618-6.076l18.756-4.757c1.284-0.325,2.648-0.127,3.787,0.551
							s1.962,1.781,2.288,3.066l15.576,61.417c0.679,2.677-0.94,5.397-3.618,6.076l-18.756,4.757
							C125.51,358.508,125.096,358.559,124.685,358.559z M115.185,295.759l13.117,51.724l9.062-2.298l-13.117-51.724
							L115.185,295.759z"/>
					</g>
					<g>
						<path fill="#906600" d="M141.344,414.826c-0.001,0-0.002,0-0.002,0c-15.951-0.002-29.834-10.812-33.76-26.292l-6.155-24.277
							c-0.53-2.092,0.341-4.287,2.161-5.446c0.539-0.343,13.389-8.455,29.246-12.477c10.131-2.569,19.987-3.108,26.473-3.108
							c3.156,0,5.104,0.135,5.186,0.141c2.153,0.151,3.966,1.667,4.496,3.759l6.155,24.275c4.724,18.626-6.587,37.625-25.213,42.349
							C147.113,414.463,144.224,414.826,141.344,414.826z M112.045,365.448l5.23,20.629c2.799,11.038,12.696,18.75,24.066,18.75
							c0.001,0,0.002,0,0.002,0c2.053,0,4.114-0.26,6.129-0.77c13.281-3.369,21.346-16.916,17.978-30.198l-5.23-20.629
							c-0.29-0.002-0.595-0.004-0.913-0.004c-4.844,0-14.402,0.364-24.016,2.802C125.308,358.559,116.502,362.979,112.045,365.448z"
							/>
					</g>
					<g>
						<path fill="#906600" d="M114.369,295.402c-3.865,0-7.673-1.039-11.081-3.068c-4.988-2.97-8.521-7.704-9.946-13.329
							l-2.556-10.076c-0.679-2.677,0.94-5.397,3.618-6.076c2.674-0.681,5.396,0.94,6.075,3.617l2.556,10.077
							c0.77,3.037,2.676,5.592,5.369,7.195c2.693,1.603,5.85,2.062,8.885,1.292c6.268-1.59,10.074-7.985,8.484-14.255l-2.555-10.077
							c-0.679-2.677,0.941-5.396,3.617-6.075c2.681-0.684,5.397,0.941,6.076,3.618l2.555,10.076
							c2.945,11.614-4.105,23.46-15.72,26.406C117.965,295.178,116.16,295.402,114.369,295.402z"/>
					</g>
					<g>
						<path fill="#28598F" d="M103.822,273.453c-7.418,0-14.723-2.015-21.125-5.828c-9.495-5.65-16.22-14.662-18.936-25.375
							c-2.714-10.711-1.096-21.839,4.557-31.334c0.68-1.14,1.783-1.963,3.068-2.289c1.285-0.324,2.648-0.128,3.787,0.551
							l16.574,9.873c2.372,1.413,3.15,4.481,1.738,6.854c-1.65,2.771-2.122,6.02-1.33,9.145c0.793,3.126,2.756,5.756,5.527,7.405
							c1.871,1.114,4,1.703,6.158,1.703c0.001,0,0.002,0,0.002,0c4.306,0,8.188-2.205,10.387-5.898
							c1.65-2.771,2.123-6.019,1.33-9.145s-2.756-5.756-5.525-7.405c-1.14-0.678-1.963-1.781-2.289-3.066s-0.128-2.647,0.551-3.787
							l9.869-16.58c0.679-1.14,1.782-1.963,3.068-2.289c1.283-0.323,2.647-0.127,3.787,0.551
							c19.598,11.67,26.05,37.108,14.381,56.706C131.98,265.708,118.347,273.452,103.822,273.453z M74.691,220.53
							c-2.429,6.096-2.879,12.78-1.236,19.263c2.059,8.122,7.158,14.955,14.357,19.239c4.857,2.893,10.393,4.421,16.009,4.421
							c11.019-0.001,21.36-5.873,26.989-15.325c7.977-13.398,4.784-30.397-6.812-40.099l-4.841,8.131
							c2.954,2.828,5.065,6.433,6.097,10.495c1.449,5.716,0.586,11.653-2.43,16.719c-3.96,6.651-11.233,10.783-18.98,10.783
							c-0.002,0-0.001,0-0.002,0c-3.961,0-7.859-1.076-11.273-3.111c-5.066-3.014-8.655-7.822-10.104-13.539
							c-1.03-4.062-0.892-8.238,0.358-12.134L74.691,220.53z"/>
					</g>
				</g>
				<g>
					<g>
						<path fill="#28598F" d="M405.129,358.559c-0.411,0-0.824-0.051-1.229-0.153l-18.756-4.757
							c-2.678-0.679-4.297-3.399-3.618-6.076l15.576-61.417c0.326-1.285,1.149-2.389,2.288-3.066
							c1.14-0.679,2.502-0.879,3.787-0.551l18.756,4.757c2.678,0.679,4.297,3.399,3.618,6.076l-15.576,61.417
							c-0.326,1.285-1.149,2.389-2.288,3.066C406.906,358.32,406.021,358.559,405.129,358.559z M392.449,345.185l9.062,2.298
							l13.117-51.724l-9.062-2.298L392.449,345.185z"/>
					</g>
					<g>
						<path fill="#906600" d="M388.472,414.826c-2.883,0-5.771-0.363-8.588-1.076c-6.34-1.609-11.832-4.869-16.133-9.207
							c-4.118-4.152,2.32-18.215,2.603-31.384c0.289-13.486-5.528-26.033-5.528-26.033c0.53-2.092,2.343-3.607,4.496-3.759
							c0.081-0.006,2.029-0.141,5.186-0.141c6.485,0,16.342,0.539,26.473,3.108c15.857,4.021,28.707,12.134,29.246,12.477
							c1.82,1.159,2.691,3.354,2.161,5.446l-6.155,24.276C418.306,404.014,404.424,414.826,388.472,414.826z M371.065,379.026
							c0,0-2.177,16.423-0.595,18.087c3.118,3.281,7.168,5.75,11.872,6.944c2.013,0.51,4.075,0.77,6.13,0.77
							c11.37,0,21.267-7.71,24.066-18.75l5.229-20.625c-4.47-2.472-13.303-6.901-23.245-9.423
							c-9.613-2.438-19.172-2.802-24.016-2.802C370.189,353.226,371.355,379.024,371.065,379.026z"/>
					</g>
					<g>
						<path fill="#906600" d="M415.445,295.402c-1.791,0-3.596-0.223-5.377-0.675c-11.615-2.946-18.666-14.792-15.721-26.407
							l2.555-10.075c0.68-2.677,3.398-4.297,6.076-3.618c2.676,0.679,4.296,3.398,3.617,6.075l-2.555,10.076
							c-1.59,6.271,2.217,12.666,8.485,14.256c3.037,0.771,6.191,0.311,8.884-1.292c2.693-1.604,4.6-4.158,5.369-7.194l2.556-10.078
							c0.679-2.676,3.397-4.292,6.075-3.617c2.678,0.679,4.297,3.399,3.618,6.076l-2.556,10.077
							c-1.426,5.624-4.958,10.358-9.946,13.328C423.119,294.363,419.31,295.402,415.445,295.402z"/>
					</g>
					<g>
						<path fill="#28598F" d="M425.993,273.453c-14.524,0-28.159-7.744-35.581-20.21c-11.669-19.598-5.217-45.036,14.381-56.706
							c1.14-0.68,2.502-0.877,3.787-0.551c1.286,0.326,2.39,1.149,3.068,2.289l9.869,16.58c0.679,1.14,0.877,2.502,0.551,3.787
							s-1.149,2.389-2.289,3.066c-2.77,1.649-4.732,4.279-5.525,7.405s-0.32,6.373,1.33,9.145c2.198,3.693,6.082,5.898,10.389,5.898
							c2.158,0,4.287-0.589,6.156-1.701c2.773-1.651,4.736-4.281,5.529-7.407c0.792-3.125,0.32-6.373-1.33-9.145
							c-1.412-2.372-0.634-5.44,1.738-6.854l16.574-9.873c1.14-0.68,2.502-0.878,3.787-0.551c1.285,0.326,2.389,1.149,3.068,2.289
							c5.652,9.495,7.271,20.623,4.557,31.334c-2.716,10.713-9.44,19.725-18.936,25.376
							C440.715,271.437,433.41,273.453,425.993,273.453z M405.816,208.029c-11.597,9.701-14.789,26.7-6.812,40.099
							c5.629,9.453,15.971,15.325,26.989,15.325c5.617,0,11.152-1.528,16.009-4.42c7.199-4.285,12.299-11.118,14.357-19.24
							c1.643-6.482,1.192-13.167-1.236-19.263l-8.131,4.843c1.25,3.896,1.389,8.071,0.358,12.134
							c-1.449,5.717-5.038,10.525-10.106,13.541c-3.413,2.033-7.312,3.109-11.271,3.109c-7.749,0-15.022-4.132-18.982-10.783
							c-3.016-5.065-3.879-11.003-2.43-16.719c1.031-4.062,3.143-7.667,6.097-10.495L405.816,208.029z"/>
					</g>
				</g>
				<g>
					<g>
						<g>
							<path fill="#EE402F" d="M326.726,320.333c0,0,35.382,13.032,35.382,52.712c0,39.679-57.556,130.611-57.556,130.611h0.001
								c0,0-25.578,5.051-42.678,5.051c-17.097,0-42.674-5.051-42.674-5.051s-57.557-90.932-57.557-130.611
								c0-39.68,35.384-52.712,35.384-52.712"/>
						</g>
						<path fill="#FFFFFF" d="M274.306,463.668c0,0,7.591,16.137-7.667,18.807s-13.315-9.984-13.315-9.984L274.306,463.668z"/>
						<g>
							<circle fill="#ABE0F9" cx="261.878" cy="358.956" r="14.205"/>
						</g>
						<g>
							<circle fill="#ABE0F9" cx="261.878" cy="411.312" r="14.205"/>
						</g>
						<g>
							<circle fill="#ABE0F9" cx="261.878" cy="463.667" r="14.205"/>
						</g>
						<g>
							<path fill="#ABE0F9" d="M161.645,257.75V173.66c0-55.357,44.876-100.229,100.23-100.229
								c55.358,0,100.232,44.872,100.232,100.229v84.091h0.002c0,0-47.374,15.625-100.231,15.625
								C209.019,273.375,161.645,257.75,161.645,257.75z"/>
						</g>
						<g>
							<rect x="244.263" y="277.839" fill="#ABE0F9" width="30.147" height="24.075"/>
						</g>
						<g>
							<rect x="197.029" y="301.915" fill="#FFDD00" width="129.699" height="18.419"/>
						</g>
						<g>
							<line fill="#FFFFFF" x1="261.879" y1="320.333" x2="261.879" y2="344.751"/>
						</g>
						<g>
							<line fill="#FFFFFF" x1="261.879" y1="373.159" x2="261.879" y2="397.108"/>
						</g>
						<g>
							<line fill="#FFFFFF" x1="261.879" y1="425.514" x2="261.879" y2="449.463"/>
						</g>
						<g>
							<line fill="#FFFFFF" x1="261.879" y1="477.871" x2="261.879" y2="508.707"/>
						</g>
						<g>
							<polygon fill="#FFFFFF" points="194.966,187.796 194.966,195.833 326.728,195.833 326.728,228.626 330.9,228.626 
								330.9,187.796 							"/>
							<path fill="#FFFFFF" d="M197.027,130.152c0,0,7.105-28.812,27.172-26.498c20.066,2.315,38.074,19.295,28.041,35.759
								L197.027,130.152z"/>
							<path fill="#FFFFFF" d="M277.451,119.604c0,0,19.027-24.81,38.588-12.091s22.896,40.389,0,43.477L277.451,119.604z"/>
							<g>
								<path fill="#F9A51A" d="M253.842,142.373c0,15.688-12.721,28.408-28.404,28.408c-15.693-0.001-28.412-12.72-28.41-28.409
									c-0.002-15.688,12.717-28.406,28.406-28.406C241.121,113.965,253.84,126.682,253.842,142.373z"/>
							</g>
							<g>
								<path fill="#F9A51A" d="M269.911,142.373c0.002,15.688,12.724,28.408,28.408,28.408c15.69-0.001,28.409-12.72,28.409-28.409
									c0-15.688-12.719-28.406-28.409-28.406C282.633,113.965,269.913,126.682,269.911,142.373z"/>
							</g>
							<g>
								<rect x="197.027" y="193.423" fill="#FFDD00" width="129.701" height="41.539"/>
							</g>
							<g>
								<line fill="none" x1="229.453" y1="193.423" x2="229.453" y2="234.962"/>
							</g>
							<g>
								<line fill="none" x1="261.876" y1="193.423" x2="261.876" y2="234.962"/>
							</g>
							<g>
								<line fill="none" x1="294.303" y1="193.423" x2="294.303" y2="234.962"/>
							</g>
						</g>
					</g>
				</g>
				<g>
					<g>
						<path fill="#790000" d="M264.904,522.85c-18.239,0-44.682-5.182-45.799-5.402c-1.345-0.266-2.521-1.072-3.255-2.232
							c-2.501-3.949-61.237-97.236-61.237-139.876c0-23.333,10.975-38.428,20.182-46.98c9.913-9.21,19.842-12.931,20.26-13.084
							c2.592-0.957,5.466,0.372,6.42,2.963c0.955,2.592-0.372,5.466-2.963,6.42c-1.373,0.515-33.898,13.122-33.898,50.682
							c0,16.243,10.259,44.574,29.668,81.927c12.479,24.018,25.085,44.66,28.875,50.77c6.617,1.219,27.348,4.814,41.748,4.814
							c14.421,0,35.15-3.598,41.758-4.816c20.904-33.451,58.534-101.723,58.534-132.695c0-37.56-32.524-50.167-33.909-50.686
							c-2.58-0.967-3.899-3.842-2.939-6.426c0.959-2.584,3.822-3.905,6.408-2.953c0.418,0.153,10.348,3.875,20.26,13.084
							c9.206,8.554,20.181,23.647,20.181,46.98c0,41.269-55.019,129.978-60.825,139.222c-0.968,2.381-3.625,2.883-4.899,3.123
							c-0.782,0.146-1.919,0.357-3.341,0.611c-2.586,0.459-6.654,1.152-11.344,1.848C282.652,521.939,272.597,522.85,264.904,522.85
							z"/>
					</g>
					<g>
						<path fill="#28598F" d="M264.907,275.635c-55.691,0-104.797-15.983-106.86-16.664c-2.049-0.676-3.434-2.59-3.434-4.748
							v-88.336c0-60.814,49.477-110.291,110.291-110.291c60.815,0,110.292,49.477,110.292,110.291v88.336
							c0,3.72-2.941,4.618-5.786,5.487c-1.367,0.418-3.608,1.086-6.518,1.895c-5.117,1.423-13.345,3.569-23.484,5.716
							C321.492,271.114,294.022,275.635,264.907,275.635z M164.613,250.531c12.101,3.592,54.465,15.104,100.294,15.104
							c45.885,0,88.202-11.51,100.291-15.104l-0.002-84.645c0-55.301-44.991-100.291-100.292-100.291
							s-100.291,44.99-100.291,100.291V250.531z"/>
					</g>
					<g>
						<path fill="#28598F" d="M283.41,305.616h-37.008c-2.762,0-5-2.238-5-5v-29.98c0-2.762,2.238-5,5-5h37.008c2.762,0,5,2.238,5,5
							v29.98C288.41,303.377,286.172,305.616,283.41,305.616z M251.402,295.616h27.008v-19.98h-27.008V295.616z"/>
					</g>
					<g>
						<path fill="#790000" d="M264.907,522.85c-2.761,0-5-2.238-5-5v-32.395c0-2.762,2.239-5,5-5s5,2.238,5,5v32.395
							C269.907,520.611,267.668,522.85,264.907,522.85z"/>
					</g>
					<g>
						<path fill="#790000" d="M264.907,457.85c-2.761,0-5-2.238-5-5v-22.395c0-2.762,2.239-5,5-5s5,2.238,5,5v22.395
							C269.907,455.611,267.668,457.85,264.907,457.85z"/>
					</g>
					<g>
						<path fill="#790000" d="M264.907,402.85c-2.761,0-5-2.238-5-5v-22.395c0-2.762,2.239-5,5-5s5,2.238,5,5v22.395
							C269.907,400.612,267.668,402.85,264.907,402.85z"/>
					</g>
					<g>
						<path fill="#790000" d="M264.907,347.85c-2.761,0-5-2.238-5-5v-22.395c0-2.762,2.239-5,5-5s5,2.238,5,5v22.395
							C269.907,345.612,267.668,347.85,264.907,347.85z"/>
					</g>
					<g>
						<g>
							<path fill="#28598F" d="M264.907,29.423c-8.112,0-14.712-6.6-14.712-14.712C250.195,6.6,256.795,0,264.907,0
								s14.712,6.6,14.712,14.711C279.619,22.824,273.019,29.423,264.907,29.423z M264.907,10c-2.599,0-4.712,2.113-4.712,4.711
								c0,2.599,2.113,4.712,4.712,4.712s4.712-2.113,4.712-4.712C269.619,12.114,267.506,10,264.907,10z"/>
						</g>
						<g>
							<path fill="#28598F" d="M286.101,44.906h-42.394c-2.761,0-5-2.238-5-5s2.239-5,5-5h42.394c2.762,0,5,2.238,5,5
								S288.863,44.906,286.101,44.906z"/>
						</g>
						<g>
							<path fill="#28598F" d="M264.907,65.596c-2.761,0-5-2.238-5-5V24.423c0-2.762,2.239-5,5-5s5,2.238,5,5v36.173
								C269.907,63.358,267.668,65.596,264.907,65.596z"/>
						</g>
					</g>
					<g>
						<g>
							<path fill="#906600" d="M226.625,167.862L226.625,167.862c-9.309-0.001-18.059-3.625-24.64-10.206
								s-10.205-15.331-10.204-24.638c-0.001-9.305,3.623-18.054,10.203-24.635c6.581-6.582,15.331-10.206,24.638-10.206
								c19.21,0,34.841,15.63,34.843,34.842C261.465,152.232,245.836,167.862,226.625,167.862z M226.622,108.177
								c-6.636,0-12.874,2.584-17.565,7.276c-4.693,4.692-7.276,10.931-7.275,17.564c-0.001,6.637,2.583,12.875,7.275,17.566
								c4.691,4.692,10.932,7.277,17.568,7.277c13.697,0,24.84-11.144,24.84-24.842
								C251.463,119.322,240.318,108.177,226.622,108.177z"/>
						</g>
						<g>
							<path fill="#906600" d="M303.187,167.862L303.187,167.862c-19.21,0-34.84-15.63-34.843-34.841
								c0.003-19.214,15.633-34.844,34.843-34.844c19.213,0,34.843,15.63,34.843,34.842
								C338.03,152.23,322.4,167.861,303.187,167.862z M303.187,108.177c-13.697,0-24.842,11.145-24.843,24.844
								c0.001,13.696,11.146,24.841,24.843,24.841c13.698-0.001,24.843-11.146,24.843-24.843
								C328.03,119.321,316.885,108.177,303.187,108.177z"/>
						</g>
						<path fill="#906600" d="M333.03,181.648H196.781c-2.762,0-5,2.238-5,5v43.636c0,2.762,2.238,5,5,5H333.03c2.761,0,5-2.238,5-5
							v-43.636C338.03,183.886,335.791,181.648,333.03,181.648z M269.904,191.648h24.064v33.636h-24.064V191.648z M259.904,225.284
							h-24.061v-33.636h24.061V225.284z M201.781,191.648h24.062v33.636h-24.062V191.648z M328.03,225.284h-24.062v-33.636h24.062
							V225.284z"/>
					</g>
					<g>
						<path fill="#28598F" d="M264.907,380.458c-10.985,0-19.922-8.937-19.922-19.921s8.937-19.921,19.922-19.921
							c10.984,0,19.921,8.937,19.921,19.922C284.828,371.522,275.891,380.458,264.907,380.458z M264.907,350.616
							c-5.471,0-9.922,4.45-9.922,9.921s4.451,9.921,9.922,9.921c5.47,0,9.921-4.45,9.921-9.92
							C274.828,355.067,270.377,350.616,264.907,350.616z"/>
					</g>
					<g>
						<path fill="#28598F" d="M264.907,435.455c-10.985,0-19.922-8.936-19.922-19.92s8.937-19.919,19.922-19.919
							c10.984,0,19.921,8.937,19.921,19.921C284.828,426.52,275.891,435.455,264.907,435.455z M264.907,405.615
							c-5.471,0-9.922,4.449-9.922,9.92s4.451,9.92,9.922,9.92c5.47,0,9.921-4.449,9.921-9.918
							C274.828,410.066,270.377,405.615,264.907,405.615z"/>
					</g>
					<g>
						<path fill="#28598F" d="M264.907,490.455c-10.985,0-19.922-8.936-19.922-19.922c0-10.984,8.937-19.92,19.922-19.92
							c10.984,0,19.921,8.938,19.921,19.922S275.891,490.455,264.907,490.455z M264.907,460.613c-5.471,0-9.922,4.451-9.922,9.92
							c0,5.471,4.451,9.922,9.922,9.922c5.47,0,9.921-4.449,9.921-9.92S270.377,460.613,264.907,460.613z"/>
					</g>
					<g>
						<path fill="#906600" d="M333.03,324.965H196.783c-2.762,0-5-2.238-5-5v-19.35c0-2.762,2.238-5,5-5H333.03c2.761,0,5,2.238,5,5
							v19.35C338.03,322.727,335.791,324.965,333.03,324.965z M201.783,314.965H328.03v-9.35H201.783V314.965z"/>
					</g>
				</g>
			</g>
			<g>
				<g>
					<g>
						<polygon fill="#FBAE17" points="258.639,786.199 20.161,670.303 20.161,376.805 258.639,492.701 						"/>
					</g>
					<g>
						<g>
							<path fill="#FFFFFF" d="M151.219,653.627c-0.002,0-0.002,0-0.004,0c-5.651-0.002-11.5-1.451-17.383-4.311
								c-24.926-12.113-44.452-46.598-44.452-78.508v-21.85c0-26.146,13.513-43.715,33.624-43.715c5.65,0,11.5,1.449,17.385,4.311
								c24.926,12.111,44.45,46.598,44.45,78.506v21.852c0,12.461-3.046,23.168-8.808,30.965
								C169.954,649.098,161.141,653.627,151.219,653.627z M123.004,520.244c-11.314,0-18.624,11.271-18.624,28.715v21.85
								c0,25.758,16.489,55.531,36.009,65.016c3.823,1.859,7.467,2.801,10.828,2.803h0.002c5.191,0,9.48-2.244,12.75-6.668
								c3.84-5.193,5.87-12.818,5.87-22.047v-21.852c0-25.756-16.489-55.531-36.007-65.016
								C130.008,521.186,126.364,520.244,123.004,520.244z"/>
						</g>
						<g>
							<path fill="#FFFFFF" d="M181.926,675.746c-2.604,0-5.135-1.357-6.52-3.781l-32.791-57.418
								c-2.055-3.598-0.804-8.18,2.793-10.232c3.596-2.055,8.178-0.805,10.232,2.793l32.791,57.418
								c2.055,3.598,0.804,8.178-2.793,10.232C184.465,675.428,183.186,675.746,181.926,675.746z"/>
						</g>
					</g>
				</g>
				<g>
					<g>
						<polygon fill="#ACC84F" points="266.639,780.199 505.116,664.303 505.116,374.805 266.639,490.701 						"/>
					</g>
					<g>
						<g>
							<path fill="#FFFFFF" d="M347.371,546.537c-2.781,0-5.453-1.555-6.75-4.225c-1.811-3.725-0.259-8.213,3.467-10.023
								l77.027-37.434c3.725-1.809,8.213-0.258,10.023,3.467c1.811,3.727,0.259,8.215-3.467,10.023l-77.027,37.436
								C349.589,546.293,348.471,546.537,347.371,546.537z"/>
						</g>
						<g>
							<path fill="#FFFFFF" d="M385.878,648.703c-4.142,0-7.5-3.357-7.5-7.5V520.316c0-4.143,3.358-7.5,7.5-7.5s7.5,3.357,7.5,7.5
								v120.887C393.378,645.346,390.019,648.703,385.878,648.703z"/>
						</g>
					</g>
				</g>
				<g>
					<g>
						<path fill="#906600" d="M155.218,660.127c-0.001,0-0.002,0-0.004,0c-5.27-0.002-10.751-1.367-16.29-4.059
							c-24.137-11.73-43.045-45.229-43.045-76.26v-21.85c0-24.652,12.508-41.215,31.124-41.215c5.269,0,10.751,1.365,16.292,4.059
							c24.137,11.729,43.043,45.227,43.043,76.258v21.852c0,11.922-2.876,22.115-8.318,29.479
							C172.426,655.957,164.328,660.127,155.218,660.127z M127.003,526.744c-12.833,0-21.124,12.252-21.124,31.215v21.85
							c0,27.064,16.785,57.238,37.416,67.266c4.166,2.025,8.178,3.051,11.92,3.053c0.001,0,0.002,0,0.003,0
							c5.942,0,11.047-2.656,14.761-7.682c4.16-5.627,6.359-13.766,6.359-23.533v-21.852c0-27.064-16.783-57.238-37.414-67.264
							C134.756,527.771,130.744,526.744,127.003,526.744z"/>
					</g>
					<g>
						<path fill="#906600" d="M185.922,682.246c-1.736,0-3.423-0.906-4.346-2.521l-32.791-57.418
							c-1.369-2.398-0.535-5.453,1.862-6.822c2.398-1.365,5.452-0.535,6.821,1.863l32.791,57.418
							c1.369,2.396,0.535,5.451-1.862,6.82C187.615,682.033,186.763,682.246,185.922,682.246z"/>
					</g>
				</g>
				<g>
					<g>
						<path fill="#536723" d="M343.369,552.035c-1.854,0-3.637-1.035-4.501-2.814c-1.207-2.484-0.172-5.477,2.312-6.684
							l77.027-37.434c2.484-1.205,5.476-0.172,6.683,2.312c1.207,2.482,0.172,5.475-2.312,6.682l-77.027,37.434
							C344.846,551.873,344.101,552.035,343.369,552.035z"/>
					</g>
					<g>
						<path fill="#536723" d="M381.877,654.203c-2.762,0-5-2.238-5-5V528.316c0-2.762,2.238-5,5-5s5,2.238,5,5v120.887
							C386.877,651.965,384.638,654.203,381.877,654.203z"/>
					</g>
				</g>
				<g>
					<g>
						<path fill="#906600" d="M262.642,533.703c-1.854,0-3.637-1.035-4.501-2.816c-1.207-2.482-0.172-5.475,2.312-6.682
							l238.477-115.896c2.481-1.205,5.476-0.174,6.683,2.311s0.172,5.477-2.312,6.684L264.824,533.199
							C264.121,533.541,263.375,533.703,262.642,533.703z"/>
					</g>
				</g>
				<g>
					<g>
						<path fill="#906600" d="M262.642,763.201c-1.854,0-3.637-1.035-4.501-2.816c-1.207-2.482-0.172-5.475,2.312-6.682
							l238.477-115.896c2.481-1.207,5.476-0.174,6.683,2.311s0.172,5.477-2.312,6.684L264.824,762.697
							C264.121,763.039,263.375,763.201,262.642,763.201z"/>
					</g>
				</g>
				<g>
					<path fill="#536723" d="M262.638,803.199c-0.924,0-1.844-0.256-2.652-0.762c-1.461-0.914-2.348-2.516-2.348-4.238V488.701
						c0-1.914,1.093-3.66,2.814-4.496l238.477-115.897c1.551-0.752,3.379-0.654,4.838,0.259c1.461,0.914,2.348,2.516,2.348,4.238
						v309.498c0,1.914-1.093,3.66-2.814,4.498L264.824,802.697C264.133,803.033,263.385,803.199,262.638,803.199z M267.638,491.83
						v298.381l228.477-111.037V380.794L267.638,491.83z"/>
				</g>
				<g>
					<path fill="#536723" d="M262.635,533.703c-0.732,0-1.478-0.162-2.182-0.504L21.974,417.303
						c-2.483-1.207-3.519-4.199-2.312-6.684c1.206-2.484,4.197-3.52,6.683-2.311l238.479,115.896
						c2.483,1.207,3.519,4.199,2.312,6.682C266.271,532.666,264.489,533.703,262.635,533.703z"/>
				</g>
				<g>
					<path fill="#536723" d="M262.635,763.201c-0.732,0-1.478-0.162-2.182-0.504L21.974,646.801
						c-2.483-1.207-3.519-4.199-2.312-6.684c1.206-2.484,4.197-3.52,6.683-2.311l238.479,115.896
						c2.483,1.207,3.519,4.199,2.312,6.682C266.271,762.164,264.489,763.201,262.635,763.201z"/>
				</g>
				<g>
					<path fill="#906600" d="M262.638,803.199c-0.746,0-1.493-0.166-2.186-0.502L21.974,686.801
						c-1.722-0.838-2.814-2.584-2.814-4.498V372.805c0-1.723,0.887-3.324,2.348-4.238s3.289-1.009,4.838-0.259l238.479,115.897
						c1.722,0.836,2.814,2.582,2.814,4.496v309.498c0,1.723-0.887,3.324-2.348,4.238
						C264.483,802.943,263.562,803.199,262.638,803.199z M29.16,679.174l228.479,111.037V491.83L29.16,380.794V679.174z"/>
				</g>
			</g>
		</g>
	</g>
</g>
</svg>
